<?xml version='1.0' encoding='UTF-8' standalone='no'?>
<svg width="296.926mm" version="1.2" xmlns="http://www.w3.org/2000/svg" height="209.973mm" viewBox="0 0 3507 2480" xmlns:xlink="http://www.w3.org/1999/xlink" baseProfile="tiny" xmlns:inkscape="http://www.inkscape.org/namespaces/inkscape">
 <defs/>
 <g fill="none" inkscape:label="Layer 1" inkscape:groupmode="layer" stroke="black" fill-rule="evenodd" stroke-linejoin="bevel" stroke-linecap="square" id="Layer 1" stroke-width="1">
  <g stroke-opacity="1" fill="none" font-family="Ubuntu" stroke="#000000" stroke-linejoin="bevel" font-style="normal" stroke-linecap="square" font-weight="400" stroke-width="1" transform="matrix(1,0,0,1,0,0)" font-size="45.8333"/>
  <g stroke-opacity="1" fill="none" font-family="Ubuntu" stroke="#000000" stroke-linejoin="bevel" font-style="normal" stroke-linecap="square" font-weight="400" stroke-width="1" transform="matrix(11.8081,0,0,11.8081,0,0)" font-size="45.8333"/>
  <g fill="#ffffff" font-family="Ubuntu" stroke="none" font-style="normal" fill-opacity="1" font-weight="400" transform="matrix(0.999751,0,0,0.999751,0,0)" font-size="45.8333">
   <path fill-rule="evenodd" vector-effect="none" d="M-1,-1 L3508.87,-1 L3508.87,2481.31 L-1,2481.31 L-1,-1"/>
  </g>
  <g stroke-opacity="1" fill="none" font-family="Ubuntu" stroke="#000000" stroke-linejoin="bevel" font-style="normal" stroke-linecap="square" font-weight="400" stroke-width="1" transform="matrix(11.8081,0,0,11.8081,0,0)" font-size="45.8333"/>
  <g stroke-opacity="1" fill="none" font-family="Ubuntu" stroke="#000000" stroke-linejoin="bevel" font-style="normal" stroke-linecap="square" font-weight="400" stroke-width="1" transform="matrix(11.8081,0,0,11.8081,0,0)" font-size="45.8333"/>
  <g stroke-opacity="1" fill="none" font-family="Ubuntu" stroke="#000000" stroke-linejoin="bevel" font-style="normal" stroke-linecap="square" font-weight="400" stroke-width="1" transform="matrix(11.8081,0,0,11.8081,0,0)" font-size="45.8333"/>
  <g stroke-opacity="1" fill="none" font-family="Ubuntu" stroke="#000000" stroke-linejoin="bevel" font-style="normal" stroke-linecap="square" font-weight="400" stroke-width="1" transform="matrix(11.8081,0,0,11.8081,0,0)" font-size="45.8333"/>
  <g stroke-opacity="1" fill="none" font-family="Ubuntu" stroke="#000000" stroke-linejoin="bevel" font-style="normal" stroke-linecap="square" font-weight="400" stroke-width="1" transform="matrix(1,0,0,1,0,0)" font-size="45.8333"/>
 </g>
 <defs/>
 <g fill="none" inkscape:label="Layer 2" inkscape:groupmode="layer" stroke="black" fill-rule="evenodd" stroke-linejoin="bevel" stroke-linecap="square" id="Layer 2" stroke-width="1">
  <g stroke-opacity="1" fill="none" font-family="Ubuntu" stroke="#000000" stroke-linejoin="bevel" font-style="normal" stroke-linecap="square" font-weight="400" stroke-width="1" transform="matrix(1,0,0,1,0,0)" font-size="45.8333"/>
  <g stroke-opacity="1" fill="none" font-family="Ubuntu" stroke="#000000" stroke-linejoin="bevel" font-style="normal" stroke-linecap="square" font-weight="400" stroke-width="1" transform="matrix(11.8081,0,0,11.8081,218.449,785.237)" font-size="45.8333"/>
  <g stroke-opacity="1" fill="none" font-family="Ubuntu" stroke="#000000" stroke-linejoin="bevel" font-style="normal" stroke-linecap="square" font-weight="400" stroke-width="1" transform="matrix(11.8081,0,0,11.8081,218.449,785.237)" font-size="45.8333"/>
  <g fill="#ffffff" font-family="Ubuntu" stroke="none" font-style="normal" fill-opacity="1" font-weight="400" transform="matrix(11.8081,0,0,11.8081,218.449,785.237)" font-size="45.8333">
   <path fill-rule="evenodd" vector-effect="non-scaling-stroke" d="M0,0 L260,0 L260,77 L0,77 L0,0"/>
  </g>
  <g stroke-opacity="1" fill="none" font-family="Ubuntu" stroke="#000000" stroke-linejoin="bevel" font-style="normal" stroke-linecap="square" font-weight="400" stroke-width="1" transform="matrix(11.8081,0,0,11.8081,218.449,785.237)" font-size="45.8333"/>
  <g fill="#000000" font-family="Ubuntu" stroke="none" font-style="normal" fill-opacity="0" font-weight="400" transform="matrix(0.999751,0,0,0.999751,218.449,785.237)" font-size="45.8333">
   <path fill-rule="evenodd" vector-effect="non-scaling-stroke" d="M0,0 L3071,0 L3071,909 L0,909 L0,0"/>
  </g>
  <g stroke-opacity="1" fill="none" font-family="Ubuntu" stroke="#000000" stroke-linejoin="bevel" font-style="normal" stroke-linecap="square" font-weight="400" stroke-width="1" transform="matrix(11.8081,0,0,11.8081,218.449,785.237)" font-size="45.8333"/>
  <g stroke-opacity="1" fill="none" font-family="Ubuntu" stroke="#000000" stroke-linejoin="bevel" font-style="normal" stroke-linecap="square" font-weight="400" stroke-width="1" transform="matrix(11.8081,0,0,11.8081,218.449,785.237)" font-size="45.8333"/>
  <g stroke-opacity="1" fill="none" font-family="Ubuntu" stroke="#000000" stroke-linejoin="bevel" font-style="normal" stroke-linecap="square" font-weight="400" stroke-width="1" transform="matrix(11.8081,0,0,11.8081,218.449,785.237)" font-size="45.8333"/>
  <g stroke-opacity="1" fill="none" font-family="Ubuntu" stroke="#000000" stroke-linejoin="bevel" font-style="normal" stroke-linecap="square" font-weight="400" stroke-width="1" transform="matrix(1,0,0,1,0,0)" font-size="45.8333"/>
  <g stroke-opacity="1" fill="none" font-family="Ubuntu" stroke="#000000" stroke-linejoin="bevel" font-style="normal" stroke-linecap="square" font-weight="400" stroke-width="1" transform="matrix(11.8081,0,0,11.8081,218.449,785.237)" font-size="45.8333"/>
  <g stroke-opacity="1" fill="none" font-family="Ubuntu" stroke="#000000" stroke-linejoin="bevel" font-style="normal" stroke-linecap="square" font-weight="400" stroke-width="1" transform="matrix(11.8081,0,0,11.8081,218.449,785.237)" font-size="45.8333"/>
  <g stroke-opacity="1" fill="none" font-family="Ubuntu" stroke="#000000" stroke-linejoin="bevel" font-style="normal" stroke-linecap="square" font-weight="400" stroke-width="1" transform="matrix(11.8081,0,0,11.8081,0,0)" font-size="45.8333"/>
  <g stroke-opacity="1" fill="none" font-family="Ubuntu" stroke="#000000" stroke-linejoin="bevel" font-style="normal" stroke-linecap="square" font-weight="400" stroke-width="1" transform="matrix(11.8081,0,0,11.8081,0,0)" font-size="45.8333"/>
  <g stroke-opacity="1" fill="none" font-family="Ubuntu" stroke="#000000" stroke-linejoin="bevel" font-style="normal" stroke-linecap="square" font-weight="400" stroke-width="1" transform="matrix(1,0,0,1,0,0)" font-size="45.8333"/>
 </g>
 <defs/>
 <g fill="none" inkscape:label="Layer 3" inkscape:groupmode="layer" stroke="black" fill-rule="evenodd" stroke-linejoin="bevel" stroke-linecap="square" id="Layer 3" stroke-width="1">
  <g stroke-opacity="1" fill="none" font-family="Ubuntu" stroke="#000000" stroke-linejoin="bevel" font-style="normal" stroke-linecap="square" font-weight="400" stroke-width="1" transform="matrix(1,0,0,1,0,0)" font-size="45.8333"/>
  <g stroke-opacity="1" fill="none" font-family="Ubuntu" stroke="#000000" stroke-linejoin="bevel" font-style="normal" stroke-linecap="square" font-weight="400" stroke-width="1" transform="matrix(11.8081,0,0,11.8081,218.449,785.237)" font-size="45.8333"/>
  <g stroke-opacity="1" fill="none" font-family="Ubuntu" stroke="#000000" stroke-linejoin="bevel" font-style="normal" stroke-linecap="square" font-weight="400" stroke-width="1" transform="matrix(11.8081,0,0,11.8081,218.449,785.237)" font-size="45.8333"/>
  <g fill="#000000" font-family="Ubuntu" stroke="none" font-style="normal" fill-opacity="0" font-weight="400" transform="matrix(0.999751,0,0,0.999751,218.449,785.237)" font-size="45.8333">
   <path fill-rule="evenodd" vector-effect="non-scaling-stroke" d="M0,0 L3071,0 L3071,909 L0,909 L0,0"/>
  </g>
  <g stroke-opacity="1" fill="#8ee364" font-family="Ubuntu" stroke="#000000" stroke-linejoin="bevel" font-style="normal" fill-opacity="1" stroke-linecap="square" font-weight="400" stroke-width="1" transform="matrix(0.999751,0,0,0.999751,218.449,785.237)" font-size="45.8333">
   <path fill-rule="evenodd" vector-effect="non-scaling-stroke" d="M417.538,395.877 C417.538,402.4 412.25,407.688 405.726,407.688 C399.203,407.688 393.915,402.4 393.915,395.877 C393.915,389.354 399.203,384.066 405.726,384.066 C412.25,384.066 417.538,389.354 417.538,395.877 "/>
   <path fill-rule="evenodd" vector-effect="non-scaling-stroke" d="M2814.74,563.162 C2814.74,569.685 2809.46,574.973 2802.93,574.973 C2796.41,574.973 2791.12,569.685 2791.12,563.162 C2791.12,556.639 2796.41,551.351 2802.93,551.351 C2809.46,551.351 2814.74,556.639 2814.74,563.162 "/>
  </g>
  <g stroke-opacity="1" fill="none" font-family="Ubuntu" stroke="#000000" stroke-linejoin="bevel" font-style="normal" stroke-linecap="square" font-weight="400" stroke-width="1" transform="matrix(11.8081,0,0,11.8081,218.449,785.237)" font-size="45.8333"/>
  <g stroke-opacity="1" fill="none" font-family="Ubuntu" stroke="#000000" stroke-linejoin="bevel" font-style="normal" stroke-linecap="square" font-weight="400" stroke-width="1" transform="matrix(11.8081,0,0,11.8081,218.449,785.237)" font-size="45.8333"/>
  <g stroke-opacity="1" fill="none" font-family="Ubuntu" stroke="#000000" stroke-linejoin="bevel" font-style="normal" stroke-linecap="square" font-weight="400" stroke-width="1" transform="matrix(11.8081,0,0,11.8081,218.449,785.237)" font-size="45.8333"/>
  <g stroke-opacity="1" fill="none" font-family="Ubuntu" stroke="#000000" stroke-linejoin="bevel" font-style="normal" stroke-linecap="square" font-weight="400" stroke-width="1" transform="matrix(1,0,0,1,0,0)" font-size="45.8333"/>
  <g stroke-opacity="1" fill="none" font-family="Ubuntu" stroke="#000000" stroke-linejoin="bevel" font-style="normal" stroke-linecap="square" font-weight="400" stroke-width="1" transform="matrix(11.8081,0,0,11.8081,218.449,785.237)" font-size="45.8333"/>
  <g stroke-opacity="1" fill="none" font-family="Ubuntu" stroke="#000000" stroke-linejoin="bevel" font-style="normal" stroke-linecap="square" font-weight="400" stroke-width="1" transform="matrix(11.8081,0,0,11.8081,218.449,785.237)" font-size="45.8333"/>
  <g stroke-opacity="1" fill="none" font-family="Ubuntu" stroke="#000000" stroke-linejoin="bevel" font-style="normal" stroke-linecap="square" font-weight="400" stroke-width="1" transform="matrix(11.8081,0,0,11.8081,0,0)" font-size="45.8333"/>
  <g stroke-opacity="1" fill="none" font-family="Ubuntu" stroke="#000000" stroke-linejoin="bevel" font-style="normal" stroke-linecap="square" font-weight="400" stroke-width="1" transform="matrix(11.8081,0,0,11.8081,0,0)" font-size="45.8333"/>
  <g stroke-opacity="1" fill="none" font-family="Ubuntu" stroke="#000000" stroke-linejoin="bevel" font-style="normal" stroke-linecap="square" font-weight="400" stroke-width="1" transform="matrix(1,0,0,1,0,0)" font-size="45.8333"/>
 </g>
 <defs/>
 <g fill="none" inkscape:label="Layer 4" inkscape:groupmode="layer" stroke="black" fill-rule="evenodd" stroke-linejoin="bevel" stroke-linecap="square" id="Layer 4" stroke-width="1">
  <g stroke-opacity="1" fill="none" font-family="Ubuntu" stroke="#000000" stroke-linejoin="bevel" font-style="normal" stroke-linecap="square" font-weight="400" stroke-width="1" transform="matrix(1,0,0,1,0,0)" font-size="45.8333"/>
  <g stroke-opacity="1" fill="none" font-family="Ubuntu" stroke="#000000" stroke-linejoin="bevel" font-style="normal" stroke-linecap="square" font-weight="400" stroke-width="1" transform="matrix(11.8081,0,0,11.8081,218.449,785.237)" font-size="45.8333"/>
  <g stroke-opacity="1" fill="none" font-family="Ubuntu" stroke="#000000" stroke-linejoin="bevel" font-style="normal" stroke-linecap="square" font-weight="400" stroke-width="1" transform="matrix(11.8081,0,0,11.8081,218.449,785.237)" font-size="45.8333"/>
  <g fill="#000000" font-family="Ubuntu" stroke="none" font-style="normal" fill-opacity="0" font-weight="400" transform="matrix(0.999751,0,0,0.999751,218.449,785.237)" font-size="45.8333">
   <path fill-rule="evenodd" vector-effect="non-scaling-stroke" d="M0,0 L3071,0 L3071,909 L0,909 L0,0"/>
  </g>
  <g stroke-opacity="1" fill="none" font-family="Ubuntu" stroke="#53b1ea" stroke-linejoin="bevel" font-style="normal" stroke-linecap="square" font-weight="400" stroke-width="3.07087" transform="matrix(0.999751,0,0,0.999751,218.449,785.237)" font-size="45.8333">
   <path fill-rule="evenodd" vector-effect="none" d=""/>
  </g>
  <g stroke-opacity="1" fill="none" font-family="Ubuntu" stroke="#361ecd" stroke-linejoin="bevel" font-style="normal" stroke-linecap="square" font-weight="400" stroke-width="3.07087" transform="matrix(0.999751,0,0,0.999751,218.449,785.237)" font-size="45.8333">
   <path fill-rule="evenodd" vector-effect="none" d="M2041.1,1006.32 L2042.46,722.615 L2042.81,650.765 L2043.16,572.248 L2043.28,549.416"/>
   <path fill-rule="evenodd" vector-effect="none" d="M1193.11,491.402 L1195.2,511.206 L1208.83,642.611 L1216.16,956.89 L1217.41,1010.27"/>
  </g>
  <g stroke-opacity="1" fill="none" font-family="Ubuntu" stroke="#ce4f7e" stroke-linejoin="bevel" font-style="normal" stroke-linecap="square" font-weight="400" stroke-width="3.07087" transform="matrix(0.999751,0,0,0.999751,218.449,785.237)" font-size="45.8333">
   <path fill-rule="evenodd" vector-effect="none" d=""/>
  </g>
  <g stroke-opacity="1" fill="none" font-family="Ubuntu" stroke="#ec6e1a" stroke-linejoin="bevel" font-style="normal" stroke-linecap="square" font-weight="400" stroke-width="3.07087" transform="matrix(0.999751,0,0,0.999751,218.449,785.237)" font-size="45.8333">
   <path fill-rule="evenodd" vector-effect="none" d="M3385.74,568.897 L3361.98,568.404 L2873.62,563.825 L2802.93,563.162 L2314.71,554.327 L2043.28,549.416 L2043.28,549.416"/>
   <path fill-rule="evenodd" vector-effect="none" d="M2043.28,549.416 L1556.61,522.819 L1350.49,511.555 L1193.11,491.402 L1001.59,469.618 L521.962,410.262 L405.726,395.877 L-69.6619,323.762 L-219.378,301.051"/>
  </g>
  <g stroke-opacity="1" fill="none" font-family="Ubuntu" stroke="#361ecd" stroke-linejoin="bevel" font-style="normal" stroke-linecap="square" font-weight="400" stroke-width="3.07087" transform="matrix(0.999751,0,0,0.999751,218.449,785.237)" font-size="45.8333">
   <path fill-rule="evenodd" vector-effect="none" d="M-316.993,149.095 L-218.34,164.464 L256.365,238.422 L731.069,312.382 L997.048,353.823 L997.048,353.823 L1181.81,382.597 L1360.62,396.693 L1845.39,435.049 L2117.37,456.57 L2117.37,456.57 L2469.99,470.2 L2843.94,468.22 L3332.11,458.268 L3346.84,457.968"/>
   <path fill-rule="evenodd" vector-effect="none" d="M1007.18,610.808 L1002.41,489.305 L1001.59,469.618 L1000.89,451.095 L997.048,353.823"/>
   <path fill-rule="evenodd" vector-effect="none" d="M1338.84,644.358 L1349.21,526.816 L1350.49,511.555 L1352.59,487.907 L1360.62,396.693"/>
   <path fill-rule="evenodd" vector-effect="none" d="M1254.21,-98.41 L1245.27,-39.045 L1198.18,273.805 L1181.81,382.597 L1191.13,471.947 L1193.11,491.402"/>
   <path fill-rule="evenodd" vector-effect="none" d="M3379.84,999.896 L3379.84,998.368 L3380.62,708.196 L3380.62,708.196 L3377.13,679.19 L2888.84,672.009 L2481.88,666.026 L2481.88,666.026 L2042.81,650.765 L1554.45,646.32 L1338.84,644.358 L1208.83,642.611 L1007.18,610.808 L532.785,536.047 L58.3848,461.287 L-252.462,412.303 L-252.462,412.303 L-314.048,402.244"/>
  </g>
  <g stroke-opacity="1" fill="none" font-family="Ubuntu" stroke="#53b1ea" stroke-linejoin="bevel" font-style="normal" stroke-linecap="square" font-weight="400" stroke-width="3.07087" transform="matrix(0.999751,0,0,0.999751,218.449,785.237)" font-size="45.8333">
   <path fill-rule="evenodd" vector-effect="none" d=""/>
   <path fill-rule="evenodd" vector-effect="none" d="M2482.92,880.491 L2612.46,878.86 L2613.28,905.187 L2772.76,903.323 L2775.15,1002.79 L2485.26,1004.18 L2482.92,880.491"/>
   <path fill-rule="evenodd" vector-effect="none" d="M2869.1,65.3847 L2930.38,63.0548 L2949.6,205.76 L2943.66,206.342 L2855.35,209.371 L2854.42,217.758 L2498.3,212.283 L2497.37,208.905 L2499.47,189.217 L2142.76,173.724 L2150.57,94.7411 L2240.85,98.2359 L2259.96,-25.3638 L2346.16,-21.636 L2349.54,-35.9647 L2377.96,-34.4503 L2376.57,7.02142 L2589.98,14.5935 L2589.17,24.4955 L2870.85,33.4655 L2869.1,65.3847"/>
   <path fill-rule="evenodd" vector-effect="none" d="M705.465,-13.5979 L675.759,61.7734 L339.675,12.4966 L341.539,8.41935 L356.916,-34.2173 L324.763,-38.8771 L315.444,-12.7825 L252.537,-22.102 L261.624,-48.0801 L213.862,-55.0697 L196.504,-9.98664 L69.06,-29.9071 L71.5063,-33.9843 L92.2187,-92.8196 L727.122,-95.8754 L726.899,-94.095 L705.465,-13.5979"/>
   <path fill-rule="evenodd" vector-effect="none" d="M3070.48,1001.38 L3069.7,954.93 L3127.48,953.998 L3124.45,834.01 L2958.33,835.524 L2959.38,902.158 L2964.86,901.925 L2966.62,1001.88"/>
   <path fill-rule="evenodd" vector-effect="none" d="M2479.08,708.429 L3332.98,701.789 L3335.19,1000.11 L2775.15,1002.79 L2772.76,903.323 L2776.14,902.974 L2776.49,883.985 L2650.33,884.218 L2649.63,839.252 L2482.92,841.698 L2479.08,708.429"/>
   <path fill-rule="evenodd" vector-effect="none" d="M-315.2,303.211 L-224.504,318.292 L527.229,429.893 L916.202,477.889 L1002.41,489.305 L1195.2,511.206 L1349.21,526.816 L2043.16,572.248 L3365.01,590.188 L3385.99,590.382"/>
   <path fill-rule="evenodd" vector-effect="none" d="M3385.51,549.223 L3359.42,549.649 L2039.43,529.495 L1352.59,487.907 L1191.13,471.947 L1000.89,451.095 L420.754,372.928 L-205.632,279.616 L-315.689,261.194"/>
   <path fill-rule="evenodd" vector-effect="none" d=""/>
   <path fill-rule="evenodd" vector-effect="none" d=""/>
  </g>
  <g stroke-opacity="1" fill="none" font-family="Ubuntu" stroke="#000000" stroke-linejoin="bevel" font-style="normal" stroke-linecap="square" font-weight="400" stroke-width="1" transform="matrix(11.8081,0,0,11.8081,218.449,785.237)" font-size="45.8333"/>
  <g stroke-opacity="1" fill="none" font-family="Ubuntu" stroke="#000000" stroke-linejoin="bevel" font-style="normal" stroke-linecap="square" font-weight="400" stroke-width="1" transform="matrix(11.8081,0,0,11.8081,218.449,785.237)" font-size="45.8333"/>
  <g stroke-opacity="1" fill="none" font-family="Ubuntu" stroke="#000000" stroke-linejoin="bevel" font-style="normal" stroke-linecap="square" font-weight="400" stroke-width="1" transform="matrix(11.8081,0,0,11.8081,218.449,785.237)" font-size="45.8333"/>
  <g stroke-opacity="1" fill="none" font-family="Ubuntu" stroke="#000000" stroke-linejoin="bevel" font-style="normal" stroke-linecap="square" font-weight="400" stroke-width="1" transform="matrix(1,0,0,1,0,0)" font-size="45.8333"/>
  <g stroke-opacity="1" fill="none" font-family="Ubuntu" stroke="#000000" stroke-linejoin="bevel" font-style="normal" stroke-linecap="square" font-weight="400" stroke-width="1" transform="matrix(11.8081,0,0,11.8081,218.449,785.237)" font-size="45.8333"/>
  <g stroke-opacity="1" fill="none" font-family="Ubuntu" stroke="#000000" stroke-linejoin="bevel" font-style="normal" stroke-linecap="square" font-weight="400" stroke-width="1" transform="matrix(11.8081,0,0,11.8081,218.449,785.237)" font-size="45.8333"/>
  <g stroke-opacity="1" fill="none" font-family="Ubuntu" stroke="#000000" stroke-linejoin="bevel" font-style="normal" stroke-linecap="square" font-weight="400" stroke-width="1" transform="matrix(11.8081,0,0,11.8081,0,0)" font-size="45.8333"/>
  <g stroke-opacity="1" fill="none" font-family="Ubuntu" stroke="#000000" stroke-linejoin="bevel" font-style="normal" stroke-linecap="square" font-weight="400" stroke-width="1" transform="matrix(11.8081,0,0,11.8081,0,0)" font-size="45.8333"/>
  <g stroke-opacity="1" fill="none" font-family="Ubuntu" stroke="#000000" stroke-linejoin="bevel" font-style="normal" stroke-linecap="square" font-weight="400" stroke-width="1" transform="matrix(1,0,0,1,0,0)" font-size="45.8333"/>
 </g>
 <defs/>
 <g fill="none" inkscape:label="Layer 5" inkscape:groupmode="layer" stroke="black" fill-rule="evenodd" stroke-linejoin="bevel" stroke-linecap="square" id="Layer 5" stroke-width="1">
  <g stroke-opacity="1" fill="none" font-family="Ubuntu" stroke="#000000" stroke-linejoin="bevel" font-style="normal" stroke-linecap="square" font-weight="400" stroke-width="1" transform="matrix(1,0,0,1,0,0)" font-size="45.8333"/>
  <g stroke-opacity="1" fill="none" font-family="Ubuntu" stroke="#000000" stroke-linejoin="bevel" font-style="normal" stroke-linecap="square" font-weight="400" stroke-width="1" transform="matrix(11.8081,0,0,11.8081,218.449,785.237)" font-size="45.8333"/>
  <g stroke-opacity="1" fill="none" font-family="Ubuntu" stroke="#000000" stroke-linejoin="bevel" font-style="normal" stroke-linecap="square" font-weight="400" stroke-width="1" transform="matrix(11.8081,0,0,11.8081,218.449,785.237)" font-size="45.8333"/>
  <g fill="#000000" font-family="Ubuntu" stroke="none" font-style="normal" fill-opacity="0" font-weight="400" transform="matrix(0.999751,0,0,0.999751,218.449,785.237)" font-size="45.8333">
   <path fill-rule="evenodd" vector-effect="non-scaling-stroke" d="M0,0 L3071,0 L3071,909 L0,909 L0,0"/>
  </g>
  <g stroke-opacity="1" fill="none" font-family="Ubuntu" stroke="#ff6b01" stroke-linejoin="bevel" font-style="normal" stroke-linecap="square" font-weight="400" stroke-width="5.90551" transform="matrix(0.999751,0,0,0.999751,218.449,785.237)" font-size="45.8333">
   <path fill-rule="evenodd" vector-effect="none" d=""/>
  </g>
  <g stroke-opacity="1" fill="#ff6b01" font-family="Ubuntu" stroke="#000000" stroke-linejoin="bevel" font-style="normal" fill-opacity="0.388235" stroke-linecap="square" font-weight="400" stroke-width="3.07087" transform="matrix(0.999751,0,0,0.999751,218.449,785.237)" font-size="45.8333">
   <path fill-rule="evenodd" vector-effect="none" d=""/>
  </g>
  <g stroke-opacity="1" fill="none" font-family="Ubuntu" stroke="#ff6b01" stroke-linejoin="bevel" font-style="normal" stroke-linecap="square" font-weight="400" stroke-width="5.90551" transform="matrix(0.999751,0,0,0.999751,218.449,785.237)" font-size="45.8333">
   <path fill-rule="evenodd" vector-effect="none" d="M2479.08,708.429 L3332.98,701.789 L3335.19,1000.11 L2775.15,1002.79 L2772.76,903.323 L2776.14,902.974 L2776.49,883.985 L2650.33,884.218 L2649.63,839.252 L2482.92,841.698 L2479.08,708.429"/>
  </g>
  <g stroke-opacity="1" fill="#ff6b01" font-family="Ubuntu" stroke="#000000" stroke-linejoin="bevel" font-style="normal" fill-opacity="0.388235" stroke-linecap="square" font-weight="400" stroke-width="3.07087" transform="matrix(0.999751,0,0,0.999751,218.449,785.237)" font-size="45.8333">
   <path fill-rule="evenodd" vector-effect="none" d="M2479.08,708.429 L3332.98,701.789 L3335.19,1000.11 L2775.15,1002.79 L2772.76,903.323 L2776.14,902.974 L2776.49,883.985 L2650.33,884.218 L2649.63,839.252 L2482.92,841.698 L2479.08,708.429"/>
  </g>
  <g stroke-opacity="1" fill="none" font-family="Ubuntu" stroke="#ff6b01" stroke-linejoin="bevel" font-style="normal" stroke-linecap="square" font-weight="400" stroke-width="5.90551" transform="matrix(0.999751,0,0,0.999751,218.449,785.237)" font-size="45.8333">
   <path fill-rule="evenodd" vector-effect="none" d="M1408.5,928.253 L1404.19,677.442 L1600.14,677.093 L1599.44,668.123 L1707.08,667.89 L1707.66,677.093 L1901.15,676.86 L1902.09,929.301 L1951.83,929.534 L1952.02,1006.74 L1361.54,1009.58 L1360.04,930.932 L1408.5,928.253"/>
  </g>
  <g stroke-opacity="1" fill="#ff6b01" font-family="Ubuntu" stroke="#000000" stroke-linejoin="bevel" font-style="normal" fill-opacity="0.388235" stroke-linecap="square" font-weight="400" stroke-width="3.07087" transform="matrix(0.999751,0,0,0.999751,218.449,785.237)" font-size="45.8333">
   <path fill-rule="evenodd" vector-effect="none" d="M1408.5,928.253 L1404.19,677.442 L1600.14,677.093 L1599.44,668.123 L1707.08,667.89 L1707.66,677.093 L1901.15,676.86 L1902.09,929.301 L1951.83,929.534 L1952.02,1006.74 L1361.54,1009.58 L1360.04,930.932 L1408.5,928.253"/>
  </g>
  <g stroke-opacity="1" fill="none" font-family="Ubuntu" stroke="#ff6b01" stroke-linejoin="bevel" font-style="normal" stroke-linecap="square" font-weight="400" stroke-width="5.90551" transform="matrix(0.999751,0,0,0.999751,218.449,785.237)" font-size="45.8333">
   <path fill-rule="evenodd" vector-effect="none" d="M2338.36,878.394 L2338.47,849.037 L2484.21,847.872 L2482.92,841.698 L2479.08,708.429 L2141.48,688.509 L2146.72,879.209 L2338.36,878.394"/>
  </g>
  <g stroke-opacity="1" fill="#ff6b01" font-family="Ubuntu" stroke="#000000" stroke-linejoin="bevel" font-style="normal" fill-opacity="0.388235" stroke-linecap="square" font-weight="400" stroke-width="3.07087" transform="matrix(0.999751,0,0,0.999751,218.449,785.237)" font-size="45.8333">
   <path fill-rule="evenodd" vector-effect="none" d="M2338.36,878.394 L2338.47,849.037 L2484.21,847.872 L2482.92,841.698 L2479.08,708.429 L2141.48,688.509 L2146.72,879.209 L2338.36,878.394"/>
  </g>
  <g stroke-opacity="1" fill="none" font-family="Ubuntu" stroke="#ff6b01" stroke-linejoin="bevel" font-style="normal" stroke-linecap="square" font-weight="400" stroke-width="5.90551" transform="matrix(0.999751,0,0,0.999751,218.449,785.237)" font-size="45.8333">
   <path fill-rule="evenodd" vector-effect="none" d="M2389.38,878.51 L2388.1,926.156 L2407.79,926.04 L2408.48,964.948 L2390.66,964.715 L2391.34,1004.64 L2146.83,1005.81 L2146.72,879.209 L2338.36,878.394 L2389.38,878.51"/>
  </g>
  <g stroke-opacity="1" fill="#ff6b01" font-family="Ubuntu" stroke="#000000" stroke-linejoin="bevel" font-style="normal" fill-opacity="0.388235" stroke-linecap="square" font-weight="400" stroke-width="3.07087" transform="matrix(0.999751,0,0,0.999751,218.449,785.237)" font-size="45.8333">
   <path fill-rule="evenodd" vector-effect="none" d="M2389.38,878.51 L2388.1,926.156 L2407.79,926.04 L2408.48,964.948 L2390.66,964.715 L2391.34,1004.64 L2146.83,1005.81 L2146.72,879.209 L2338.36,878.394 L2389.38,878.51"/>
  </g>
  <g stroke-opacity="1" fill="none" font-family="Ubuntu" stroke="#ff6b01" stroke-linejoin="bevel" font-style="normal" stroke-linecap="square" font-weight="400" stroke-width="5.90551" transform="matrix(0.999751,0,0,0.999751,218.449,785.237)" font-size="45.8333">
   <path fill-rule="evenodd" vector-effect="none" d="M2981.28,3.06064 L2932.01,0.497781 L2932.24,-10.4526 L2875.97,-13.2485 L2881.63,-106.223 L3230.25,-107.894 L3247.82,51.4055 L2988.97,60.3755 L2981.28,3.06064"/>
  </g>
  <g stroke-opacity="1" fill="#ff6b01" font-family="Ubuntu" stroke="#000000" stroke-linejoin="bevel" font-style="normal" fill-opacity="0.388235" stroke-linecap="square" font-weight="400" stroke-width="3.07087" transform="matrix(0.999751,0,0,0.999751,218.449,785.237)" font-size="45.8333">
   <path fill-rule="evenodd" vector-effect="none" d="M2981.28,3.06064 L2932.01,0.497781 L2932.24,-10.4526 L2875.97,-13.2485 L2881.63,-106.223 L3230.25,-107.894 L3247.82,51.4055 L2988.97,60.3755 L2981.28,3.06064"/>
  </g>
  <g stroke-opacity="1" fill="none" font-family="Ubuntu" stroke="#ff6b01" stroke-linejoin="bevel" font-style="normal" stroke-linecap="square" font-weight="400" stroke-width="5.90551" transform="matrix(0.999751,0,0,0.999751,218.449,785.237)" font-size="45.8333">
   <path fill-rule="evenodd" vector-effect="none" d="M3263.78,189.8 L3247.82,51.4055 L2988.97,60.3755 L2980.24,62.2394 L2996.89,203.663 L3015.3,202.731 L3263.78,189.8"/>
  </g>
  <g stroke-opacity="1" fill="#ff6b01" font-family="Ubuntu" stroke="#000000" stroke-linejoin="bevel" font-style="normal" fill-opacity="0.388235" stroke-linecap="square" font-weight="400" stroke-width="3.07087" transform="matrix(0.999751,0,0,0.999751,218.449,785.237)" font-size="45.8333">
   <path fill-rule="evenodd" vector-effect="none" d="M3263.78,189.8 L3247.82,51.4055 L2988.97,60.3755 L2980.24,62.2394 L2996.89,203.663 L3015.3,202.731 L3263.78,189.8"/>
  </g>
  <g stroke-opacity="1" fill="none" font-family="Ubuntu" stroke="#ff6b01" stroke-linejoin="bevel" font-style="normal" stroke-linecap="square" font-weight="400" stroke-width="5.90551" transform="matrix(0.999751,0,0,0.999751,218.449,785.237)" font-size="45.8333">
   <path fill-rule="evenodd" vector-effect="none" d="M2537.79,253.755 L2808.99,258.415 L2808.41,272.161 L2849.41,272.044 L2849.18,282.179 L2836.02,442.358 L2478.73,437.815 L2491.2,266.919 L2536.28,267.734 L2537.79,253.755"/>
  </g>
  <g stroke-opacity="1" fill="#ff6b01" font-family="Ubuntu" stroke="#000000" stroke-linejoin="bevel" font-style="normal" fill-opacity="0.388235" stroke-linecap="square" font-weight="400" stroke-width="3.07087" transform="matrix(0.999751,0,0,0.999751,218.449,785.237)" font-size="45.8333">
   <path fill-rule="evenodd" vector-effect="none" d="M2537.79,253.755 L2808.99,258.415 L2808.41,272.161 L2849.41,272.044 L2849.18,282.179 L2836.02,442.358 L2478.73,437.815 L2491.2,266.919 L2536.28,267.734 L2537.79,253.755"/>
  </g>
  <g stroke-opacity="1" fill="none" font-family="Ubuntu" stroke="#ff6b01" stroke-linejoin="bevel" font-style="normal" stroke-linecap="square" font-weight="400" stroke-width="5.90551" transform="matrix(0.999751,0,0,0.999751,218.449,785.237)" font-size="45.8333">
   <path fill-rule="evenodd" vector-effect="none" d="M2478.73,437.815 L2120.98,427.214 L2132.39,269.948 L2134.49,252.007 L2169.91,253.871 L2171.42,242.455 L2238.64,243.387 L2238.87,224.049 L2374.82,228.825 L2375.05,248.396 L2461.61,251.309 L2460.79,263.074 L2488.98,263.424 L2491.2,266.919 L2478.73,437.815"/>
  </g>
  <g stroke-opacity="1" fill="#ff6b01" font-family="Ubuntu" stroke="#000000" stroke-linejoin="bevel" font-style="normal" fill-opacity="0.388235" stroke-linecap="square" font-weight="400" stroke-width="3.07087" transform="matrix(0.999751,0,0,0.999751,218.449,785.237)" font-size="45.8333">
   <path fill-rule="evenodd" vector-effect="none" d="M2478.73,437.815 L2120.98,427.214 L2132.39,269.948 L2134.49,252.007 L2169.91,253.871 L2171.42,242.455 L2238.64,243.387 L2238.87,224.049 L2374.82,228.825 L2375.05,248.396 L2461.61,251.309 L2460.79,263.074 L2488.98,263.424 L2491.2,266.919 L2478.73,437.815"/>
  </g>
  <g stroke-opacity="1" fill="none" font-family="Ubuntu" stroke="#ff6b01" stroke-linejoin="bevel" font-style="normal" stroke-linecap="square" font-weight="400" stroke-width="5.90551" transform="matrix(0.999751,0,0,0.999751,218.449,785.237)" font-size="45.8333">
   <path fill-rule="evenodd" vector-effect="none" d="M2838.58,-8.35574 L2874.11,-7.30729 L2880.98,-106.22 L2596.16,-104.854 L2592.31,-16.2773 L2625.63,-15.3453 L2624.7,-1.83209 L2837.76,4.34207 L2838.58,-8.35574"/>
  </g>
  <g stroke-opacity="1" fill="#ff6b01" font-family="Ubuntu" stroke="#000000" stroke-linejoin="bevel" font-style="normal" fill-opacity="0.388235" stroke-linecap="square" font-weight="400" stroke-width="3.07087" transform="matrix(0.999751,0,0,0.999751,218.449,785.237)" font-size="45.8333">
   <path fill-rule="evenodd" vector-effect="none" d="M2838.58,-8.35574 L2874.11,-7.30729 L2880.98,-106.22 L2596.16,-104.854 L2592.31,-16.2773 L2625.63,-15.3453 L2624.7,-1.83209 L2837.76,4.34207 L2838.58,-8.35574"/>
  </g>
  <g stroke-opacity="1" fill="none" font-family="Ubuntu" stroke="#ff6b01" stroke-linejoin="bevel" font-style="normal" stroke-linecap="square" font-weight="400" stroke-width="5.90551" transform="matrix(0.999751,0,0,0.999751,218.449,785.237)" font-size="45.8333">
   <path fill-rule="evenodd" vector-effect="none" d="M2592.2,-13.0155 L2408.25,-18.7237 L2409.42,-32.5864 L2377.96,-34.4503 L2381.82,-103.825 L2596.16,-104.854 L2592.31,-16.2773 L2592.2,-13.0155"/>
  </g>
  <g stroke-opacity="1" fill="#ff6b01" font-family="Ubuntu" stroke="#000000" stroke-linejoin="bevel" font-style="normal" fill-opacity="0.388235" stroke-linecap="square" font-weight="400" stroke-width="3.07087" transform="matrix(0.999751,0,0,0.999751,218.449,785.237)" font-size="45.8333">
   <path fill-rule="evenodd" vector-effect="none" d="M2592.2,-13.0155 L2408.25,-18.7237 L2409.42,-32.5864 L2377.96,-34.4503 L2381.82,-103.825 L2596.16,-104.854 L2592.31,-16.2773 L2592.2,-13.0155"/>
  </g>
  <g stroke-opacity="1" fill="none" font-family="Ubuntu" stroke="#ff6b01" stroke-linejoin="bevel" font-style="normal" stroke-linecap="square" font-weight="400" stroke-width="5.90551" transform="matrix(0.999751,0,0,0.999751,218.449,785.237)" font-size="45.8333">
   <path fill-rule="evenodd" vector-effect="none" d="M1809.94,-66.486 L1684.48,-70.4468 L1660.95,-58.3315 L1648.25,-0.900147 L1413.16,-14.8794 L1425.02,-99.231 L1812,-101.09 L1809.94,-66.486"/>
  </g>
  <g stroke-opacity="1" fill="#ff6b01" font-family="Ubuntu" stroke="#000000" stroke-linejoin="bevel" font-style="normal" fill-opacity="0.388235" stroke-linecap="square" font-weight="400" stroke-width="3.07087" transform="matrix(0.999751,0,0,0.999751,218.449,785.237)" font-size="45.8333">
   <path fill-rule="evenodd" vector-effect="none" d="M1809.94,-66.486 L1684.48,-70.4468 L1660.95,-58.3315 L1648.25,-0.900147 L1413.16,-14.8794 L1425.02,-99.231 L1812,-101.09 L1809.94,-66.486"/>
  </g>
  <g stroke-opacity="1" fill="none" font-family="Ubuntu" stroke="#ff6b01" stroke-linejoin="bevel" font-style="normal" stroke-linecap="square" font-weight="400" stroke-width="5.90551" transform="matrix(0.999751,0,0,0.999751,218.449,785.237)" font-size="45.8333">
   <path fill-rule="evenodd" vector-effect="none" d="M1664.32,0.148302 L1646.62,98.1194 L1656.98,99.4009 L1650.34,139.941 L1391.84,125.262 L1413.16,-14.8794 L1648.25,-0.900147 L1664.32,0.148302"/>
  </g>
  <g stroke-opacity="1" fill="#ff6b01" font-family="Ubuntu" stroke="#000000" stroke-linejoin="bevel" font-style="normal" fill-opacity="0.388235" stroke-linecap="square" font-weight="400" stroke-width="3.07087" transform="matrix(0.999751,0,0,0.999751,218.449,785.237)" font-size="45.8333">
   <path fill-rule="evenodd" vector-effect="none" d="M1664.32,0.148302 L1646.62,98.1194 L1656.98,99.4009 L1650.34,139.941 L1391.84,125.262 L1413.16,-14.8794 L1648.25,-0.900147 L1664.32,0.148302"/>
  </g>
  <g stroke-opacity="1" fill="none" font-family="Ubuntu" stroke="#ff6b01" stroke-linejoin="bevel" font-style="normal" stroke-linecap="square" font-weight="400" stroke-width="5.90551" transform="matrix(0.999751,0,0,0.999751,218.449,785.237)" font-size="45.8333">
   <path fill-rule="evenodd" vector-effect="none" d="M1764.04,406.012 L1414.33,376.19 L1410.37,370.714 L1360.16,329.476 L1391.84,125.262 L1650.34,139.941 L1657.1,140.29 L1643.24,206.924 L1606.78,232.67 L1623.43,243.736 L1668.52,225.33 L1778.95,234.766 L1777.56,248.513 L1764.04,406.012"/>
  </g>
  <g stroke-opacity="1" fill="#ff6b01" font-family="Ubuntu" stroke="#000000" stroke-linejoin="bevel" font-style="normal" fill-opacity="0.388235" stroke-linecap="square" font-weight="400" stroke-width="3.07087" transform="matrix(0.999751,0,0,0.999751,218.449,785.237)" font-size="45.8333">
   <path fill-rule="evenodd" vector-effect="none" d="M1764.04,406.012 L1414.33,376.19 L1410.37,370.714 L1360.16,329.476 L1391.84,125.262 L1650.34,139.941 L1657.1,140.29 L1643.24,206.924 L1606.78,232.67 L1623.43,243.736 L1668.52,225.33 L1778.95,234.766 L1777.56,248.513 L1764.04,406.012"/>
  </g>
  <g stroke-opacity="1" fill="none" font-family="Ubuntu" stroke="#ff6b01" stroke-linejoin="bevel" font-style="normal" stroke-linecap="square" font-weight="400" stroke-width="5.90551" transform="matrix(0.999751,0,0,0.999751,218.449,785.237)" font-size="45.8333">
   <path fill-rule="evenodd" vector-effect="none" d="M1764.04,406.012 L1777.56,248.513 L1835.8,251.658 L1840.23,236.397 L2070.3,251.425 L2067.97,265.754 L2132.39,269.948 L2120.98,427.214 L1764.04,406.012"/>
  </g>
  <g stroke-opacity="1" fill="#ff6b01" font-family="Ubuntu" stroke="#000000" stroke-linejoin="bevel" font-style="normal" fill-opacity="0.388235" stroke-linecap="square" font-weight="400" stroke-width="3.07087" transform="matrix(0.999751,0,0,0.999751,218.449,785.237)" font-size="45.8333">
   <path fill-rule="evenodd" vector-effect="none" d="M1764.04,406.012 L1777.56,248.513 L1835.8,251.658 L1840.23,236.397 L2070.3,251.425 L2067.97,265.754 L2132.39,269.948 L2120.98,427.214 L1764.04,406.012"/>
  </g>
  <g stroke-opacity="1" fill="none" font-family="Ubuntu" stroke="#ff6b01" stroke-linejoin="bevel" font-style="normal" stroke-linecap="square" font-weight="400" stroke-width="5.90551" transform="matrix(0.999751,0,0,0.999751,218.449,785.237)" font-size="45.8333">
   <path fill-rule="evenodd" vector-effect="none" d="M1098.69,1010.84 L1093.16,664.977 L750.431,613.254 L687.874,769.705 L689.039,782.286 L689.388,823.758 L691.019,870.705 L692.989,1012.8"/>
  </g>
  <g stroke-opacity="1" fill="#ff6b01" font-family="Ubuntu" stroke="#000000" stroke-linejoin="bevel" font-style="normal" fill-opacity="0.388235" stroke-linecap="square" font-weight="400" stroke-width="3.07087" transform="matrix(0.999751,0,0,0.999751,218.449,785.237)" font-size="45.8333">
   <path fill-rule="evenodd" vector-effect="none" d="M1098.69,1010.84 L1093.16,664.977 L750.431,613.254 L687.874,769.705 L689.039,782.286 L689.388,823.758 L691.019,870.705 L692.989,1012.8"/>
  </g>
  <g stroke-opacity="1" fill="none" font-family="Ubuntu" stroke="#ff6b01" stroke-linejoin="bevel" font-style="normal" stroke-linecap="square" font-weight="400" stroke-width="5.90551" transform="matrix(0.999751,0,0,0.999751,218.449,785.237)" font-size="45.8333">
   <path fill-rule="evenodd" vector-effect="none" d="M-152.045,471.365 L306.241,542.892 L241.238,707.73 L110.998,687.344 L117.288,665.094 L99.3483,661.832 L97.9504,665.21 L95.504,668.123 L92.1257,670.802 L87.9319,672.782 L83.0392,674.18 L77.9135,674.879 L72.5548,674.763 L67.4291,673.947 L58.1096,703.304 L86.767,707.73 L74.5352,747.222 L-184.081,719.613 L-173.713,681.519 L-219.611,676.743 L-152.045,471.365"/>
  </g>
  <g stroke-opacity="1" fill="#ff6b01" font-family="Ubuntu" stroke="#000000" stroke-linejoin="bevel" font-style="normal" fill-opacity="0.388235" stroke-linecap="square" font-weight="400" stroke-width="3.07087" transform="matrix(0.999751,0,0,0.999751,218.449,785.237)" font-size="45.8333">
   <path fill-rule="evenodd" vector-effect="none" d="M-152.045,471.365 L306.241,542.892 L241.238,707.73 L110.998,687.344 L117.288,665.094 L99.3483,661.832 L97.9504,665.21 L95.504,668.123 L92.1257,670.802 L87.9319,672.782 L83.0392,674.18 L77.9135,674.879 L72.5548,674.763 L67.4291,673.947 L58.1096,703.304 L86.767,707.73 L74.5352,747.222 L-184.081,719.613 L-173.713,681.519 L-219.611,676.743 L-152.045,471.365"/>
  </g>
  <g stroke-opacity="1" fill="none" font-family="Ubuntu" stroke="#ff6b01" stroke-linejoin="bevel" font-style="normal" stroke-linecap="square" font-weight="400" stroke-width="5.90551" transform="matrix(0.999751,0,0,0.999751,218.449,785.237)" font-size="45.8333">
   <path fill-rule="evenodd" vector-effect="none" d="M306.241,542.892 L750.431,613.254 L687.874,769.705 L689.039,782.286 L550.761,762.482 L503.348,752.697 L300.416,722.059 L290.398,747.222 L229.355,737.669 L241.238,707.73 L306.241,542.892"/>
  </g>
  <g stroke-opacity="1" fill="#ff6b01" font-family="Ubuntu" stroke="#000000" stroke-linejoin="bevel" font-style="normal" fill-opacity="0.388235" stroke-linecap="square" font-weight="400" stroke-width="3.07087" transform="matrix(0.999751,0,0,0.999751,218.449,785.237)" font-size="45.8333">
   <path fill-rule="evenodd" vector-effect="none" d="M306.241,542.892 L750.431,613.254 L687.874,769.705 L689.039,782.286 L550.761,762.482 L503.348,752.697 L300.416,722.059 L290.398,747.222 L229.355,737.669 L241.238,707.73 L306.241,542.892"/>
  </g>
  <g stroke-opacity="1" fill="none" font-family="Ubuntu" stroke="#ff6b01" stroke-linejoin="bevel" font-style="normal" stroke-linecap="square" font-weight="400" stroke-width="5.90551" transform="matrix(0.999751,0,0,0.999751,218.449,785.237)" font-size="45.8333">
   <path fill-rule="evenodd" vector-effect="none" d="M430.732,1014.06 L426.462,865.346 L433.219,864.414 L431.705,827.369 L434.151,827.835 L689.388,823.758 L691.019,870.705 L672.147,871.637 L674.477,953.299 L600.737,953.765 L600.853,926.505 L608.076,926.04 L608.425,916.138 L579.768,916.953 L582.477,1013.33"/>
  </g>
  <g stroke-opacity="1" fill="#ff6b01" font-family="Ubuntu" stroke="#000000" stroke-linejoin="bevel" font-style="normal" fill-opacity="0.388235" stroke-linecap="square" font-weight="400" stroke-width="3.07087" transform="matrix(0.999751,0,0,0.999751,218.449,785.237)" font-size="45.8333">
   <path fill-rule="evenodd" vector-effect="none" d="M430.732,1014.06 L426.462,865.346 L433.219,864.414 L431.705,827.369 L434.151,827.835 L689.388,823.758 L691.019,870.705 L672.147,871.637 L674.477,953.299 L600.737,953.765 L600.853,926.505 L608.076,926.04 L608.425,916.138 L579.768,916.953 L582.477,1013.33"/>
  </g>
  <g stroke-opacity="1" fill="none" font-family="Ubuntu" stroke="#ff6b01" stroke-linejoin="bevel" font-style="normal" stroke-linecap="square" font-weight="400" stroke-width="5.90551" transform="matrix(0.999751,0,0,0.999751,218.449,785.237)" font-size="45.8333">
   <path fill-rule="evenodd" vector-effect="none" d="M-243.079,1017.3 L-229.863,923.011 L29.5686,941.184 L24.2099,986.267 L30.0346,986.733 L26.3985,1016"/>
  </g>
  <g stroke-opacity="1" fill="#ff6b01" font-family="Ubuntu" stroke="#000000" stroke-linejoin="bevel" font-style="normal" fill-opacity="0.388235" stroke-linecap="square" font-weight="400" stroke-width="3.07087" transform="matrix(0.999751,0,0,0.999751,218.449,785.237)" font-size="45.8333">
   <path fill-rule="evenodd" vector-effect="none" d="M-243.079,1017.3 L-229.863,923.011 L29.5686,941.184 L24.2099,986.267 L30.0346,986.733 L26.3985,1016"/>
  </g>
  <g stroke-opacity="1" fill="none" font-family="Ubuntu" stroke="#ff6b01" stroke-linejoin="bevel" font-style="normal" stroke-linecap="square" font-weight="400" stroke-width="5.90551" transform="matrix(0.999751,0,0,0.999751,218.449,785.237)" font-size="45.8333">
   <path fill-rule="evenodd" vector-effect="none" d="M74.5352,747.222 L61.1384,785.898 L54.8477,824.923 L59.9735,826.088 L51.8189,863.832 L43.6644,864.065 L29.5686,941.184 L-229.863,923.011 L-184.081,719.613 L74.5352,747.222"/>
  </g>
  <g stroke-opacity="1" fill="#ff6b01" font-family="Ubuntu" stroke="#000000" stroke-linejoin="bevel" font-style="normal" fill-opacity="0.388235" stroke-linecap="square" font-weight="400" stroke-width="3.07087" transform="matrix(0.999751,0,0,0.999751,218.449,785.237)" font-size="45.8333">
   <path fill-rule="evenodd" vector-effect="none" d="M74.5352,747.222 L61.1384,785.898 L54.8477,824.923 L59.9735,826.088 L51.8189,863.832 L43.6644,864.065 L29.5686,941.184 L-229.863,923.011 L-184.081,719.613 L74.5352,747.222"/>
  </g>
  <g stroke-opacity="1" fill="none" font-family="Ubuntu" stroke="#ff6b01" stroke-linejoin="bevel" font-style="normal" stroke-linecap="square" font-weight="400" stroke-width="5.90551" transform="matrix(0.999751,0,0,0.999751,218.449,785.237)" font-size="45.8333">
   <path fill-rule="evenodd" vector-effect="none" d="M1065.43,140.29 L1044.34,287.538 L959.654,325.049 L598.29,265.87 L637.665,159.512 L697.543,168.482 L690.786,183.975 L800.523,201.682 L804.018,186.189 L829.297,126.078 L831.977,127.243 L841.296,130.039 L1065.43,140.29"/>
  </g>
  <g stroke-opacity="1" fill="#ff6b01" font-family="Ubuntu" stroke="#000000" stroke-linejoin="bevel" font-style="normal" fill-opacity="0.388235" stroke-linecap="square" font-weight="400" stroke-width="3.07087" transform="matrix(0.999751,0,0,0.999751,218.449,785.237)" font-size="45.8333">
   <path fill-rule="evenodd" vector-effect="none" d="M1065.43,140.29 L1044.34,287.538 L959.654,325.049 L598.29,265.87 L637.665,159.512 L697.543,168.482 L690.786,183.975 L800.523,201.682 L804.018,186.189 L829.297,126.078 L831.977,127.243 L841.296,130.039 L1065.43,140.29"/>
  </g>
  <g stroke-opacity="1" fill="none" font-family="Ubuntu" stroke="#ff6b01" stroke-linejoin="bevel" font-style="normal" stroke-linecap="square" font-weight="400" stroke-width="5.90551" transform="matrix(0.999751,0,0,0.999751,218.449,785.237)" font-size="45.8333">
   <path fill-rule="evenodd" vector-effect="none" d="M804.95,36.0283 L820.56,36.7273 L822.774,-4.39495 L827.899,-4.62794 L1084.42,10.5162 L1065.43,140.29 L841.296,130.039 L831.977,127.243 L836.753,94.9741 L809.144,90.6638 L810.658,79.5969 L794.466,77.5001 L804.95,36.0283"/>
  </g>
  <g stroke-opacity="1" fill="#ff6b01" font-family="Ubuntu" stroke="#000000" stroke-linejoin="bevel" font-style="normal" fill-opacity="0.388235" stroke-linecap="square" font-weight="400" stroke-width="3.07087" transform="matrix(0.999751,0,0,0.999751,218.449,785.237)" font-size="45.8333">
   <path fill-rule="evenodd" vector-effect="none" d="M804.95,36.0283 L820.56,36.7273 L822.774,-4.39495 L827.899,-4.62794 L1084.42,10.5162 L1065.43,140.29 L841.296,130.039 L831.977,127.243 L836.753,94.9741 L809.144,90.6638 L810.658,79.5969 L794.466,77.5001 L804.95,36.0283"/>
  </g>
  <g stroke-opacity="1" fill="none" font-family="Ubuntu" stroke="#ff6b01" stroke-linejoin="bevel" font-style="normal" stroke-linecap="square" font-weight="400" stroke-width="5.90551" transform="matrix(0.999751,0,0,0.999751,218.449,785.237)" font-size="45.8333">
   <path fill-rule="evenodd" vector-effect="none" d="M1084.42,10.5162 L827.899,-4.62794 L839.549,-86.7559 L827.265,-96.3571 L1099.49,-97.6662 L1084.42,10.5162"/>
  </g>
  <g stroke-opacity="1" fill="#ff6b01" font-family="Ubuntu" stroke="#000000" stroke-linejoin="bevel" font-style="normal" fill-opacity="0.388235" stroke-linecap="square" font-weight="400" stroke-width="3.07087" transform="matrix(0.999751,0,0,0.999751,218.449,785.237)" font-size="45.8333">
   <path fill-rule="evenodd" vector-effect="none" d="M1084.42,10.5162 L827.899,-4.62794 L839.549,-86.7559 L827.265,-96.3571 L1099.49,-97.6662 L1084.42,10.5162"/>
  </g>
  <g stroke-opacity="1" fill="none" font-family="Ubuntu" stroke="#ff6b01" stroke-linejoin="bevel" font-style="normal" stroke-linecap="square" font-weight="400" stroke-width="5.90551" transform="matrix(0.999751,0,0,0.999751,218.449,785.237)" font-size="45.8333">
   <path fill-rule="evenodd" vector-effect="none" d="M598.29,265.87 L264.536,215.661 L326.511,45.5808 L378.7,54.7838 L380.098,50.357 L608.775,85.3051 L603.649,94.8576 L658.518,104.294 L637.665,159.512 L598.29,265.87"/>
  </g>
  <g stroke-opacity="1" fill="#ff6b01" font-family="Ubuntu" stroke="#000000" stroke-linejoin="bevel" font-style="normal" fill-opacity="0.388235" stroke-linecap="square" font-weight="400" stroke-width="3.07087" transform="matrix(0.999751,0,0,0.999751,218.449,785.237)" font-size="45.8333">
   <path fill-rule="evenodd" vector-effect="none" d="M598.29,265.87 L264.536,215.661 L326.511,45.5808 L378.7,54.7838 L380.098,50.357 L608.775,85.3051 L603.649,94.8576 L658.518,104.294 L637.665,159.512 L598.29,265.87"/>
  </g>
  <g stroke-opacity="1" fill="none" font-family="Ubuntu" stroke="#ff6b01" stroke-linejoin="bevel" font-style="normal" stroke-linecap="square" font-weight="400" stroke-width="5.90551" transform="matrix(0.999751,0,0,0.999751,218.449,785.237)" font-size="45.8333">
   <path fill-rule="evenodd" vector-effect="none" d="M-3.04957,174.306 L49.955,24.612 L58.459,3.8761 L104.591,11.3317 L106.687,7.95337 L142.567,13.0791 L138.84,22.2821 L182.059,29.1552 L184.855,20.1852 L273.506,34.2809 L272.458,38.2417 L326.511,45.5808 L264.536,215.661 L-3.04957,174.306"/>
  </g>
  <g stroke-opacity="1" fill="#ff6b01" font-family="Ubuntu" stroke="#000000" stroke-linejoin="bevel" font-style="normal" fill-opacity="0.388235" stroke-linecap="square" font-weight="400" stroke-width="3.07087" transform="matrix(0.999751,0,0,0.999751,218.449,785.237)" font-size="45.8333">
   <path fill-rule="evenodd" vector-effect="none" d="M-3.04957,174.306 L49.955,24.612 L58.459,3.8761 L104.591,11.3317 L106.687,7.95337 L142.567,13.0791 L138.84,22.2821 L182.059,29.1552 L184.855,20.1852 L273.506,34.2809 L272.458,38.2417 L326.511,45.5808 L264.536,215.661 L-3.04957,174.306"/>
  </g>
  <g stroke-opacity="1" fill="none" font-family="Ubuntu" stroke="#ff6b01" stroke-linejoin="bevel" font-style="normal" stroke-linecap="square" font-weight="400" stroke-width="5.90551" transform="matrix(0.999751,0,0,0.999751,218.449,785.237)" font-size="45.8333">
   <path fill-rule="evenodd" vector-effect="none" d="M-3.04957,174.306 L-317.282,124.266 L-319.609,-75.7582 L-187.342,-54.9532 L-199.924,-15.3454 L49.955,24.612 L-3.04957,174.306"/>
  </g>
  <g stroke-opacity="1" fill="#ff6b01" font-family="Ubuntu" stroke="#000000" stroke-linejoin="bevel" font-style="normal" fill-opacity="0.388235" stroke-linecap="square" font-weight="400" stroke-width="3.07087" transform="matrix(0.999751,0,0,0.999751,218.449,785.237)" font-size="45.8333">
   <path fill-rule="evenodd" vector-effect="none" d="M-3.04957,174.306 L-317.282,124.266 L-319.609,-75.7582 L-187.342,-54.9532 L-199.924,-15.3454 L49.955,24.612 L-3.04957,174.306"/>
  </g>
  <g stroke-opacity="1" fill="none" font-family="Ubuntu" stroke="#ff6b01" stroke-linejoin="bevel" font-style="normal" stroke-linecap="square" font-weight="400" stroke-width="5.90551" transform="matrix(0.999751,0,0,0.999751,218.449,785.237)" font-size="45.8333">
   <path fill-rule="evenodd" vector-effect="none" d="M2836.02,442.358 L2849.18,282.179 L2974.06,280.082 L2988.04,258.764 L3019.61,251.774 L3015.3,202.731 L3263.78,189.8 L3288.59,434.203 L3285.8,435.252 L3282.65,435.601 L2836.02,442.358"/>
  </g>
  <g stroke-opacity="1" fill="#ff6b01" font-family="Ubuntu" stroke="#000000" stroke-linejoin="bevel" font-style="normal" fill-opacity="0.388235" stroke-linecap="square" font-weight="400" stroke-width="3.07087" transform="matrix(0.999751,0,0,0.999751,218.449,785.237)" font-size="45.8333">
   <path fill-rule="evenodd" vector-effect="none" d="M2836.02,442.358 L2849.18,282.179 L2974.06,280.082 L2988.04,258.764 L3019.61,251.774 L3015.3,202.731 L3263.78,189.8 L3288.59,434.203 L3285.8,435.252 L3282.65,435.601 L2836.02,442.358"/>
  </g>
  <g stroke-opacity="1" fill="none" font-family="Ubuntu" stroke="#000000" stroke-linejoin="bevel" font-style="normal" stroke-linecap="square" font-weight="400" stroke-width="1" transform="matrix(11.8081,0,0,11.8081,218.449,785.237)" font-size="45.8333"/>
  <g stroke-opacity="1" fill="none" font-family="Ubuntu" stroke="#000000" stroke-linejoin="bevel" font-style="normal" stroke-linecap="square" font-weight="400" stroke-width="1" transform="matrix(11.8081,0,0,11.8081,218.449,785.237)" font-size="45.8333"/>
  <g stroke-opacity="1" fill="none" font-family="Ubuntu" stroke="#000000" stroke-linejoin="bevel" font-style="normal" stroke-linecap="square" font-weight="400" stroke-width="1" transform="matrix(11.8081,0,0,11.8081,218.449,785.237)" font-size="45.8333"/>
  <g stroke-opacity="1" fill="none" font-family="Ubuntu" stroke="#000000" stroke-linejoin="bevel" font-style="normal" stroke-linecap="square" font-weight="400" stroke-width="1" transform="matrix(1,0,0,1,0,0)" font-size="45.8333"/>
  <g stroke-opacity="1" fill="none" font-family="Ubuntu" stroke="#000000" stroke-linejoin="bevel" font-style="normal" stroke-linecap="square" font-weight="400" stroke-width="1" transform="matrix(11.8081,0,0,11.8081,218.449,785.237)" font-size="45.8333"/>
  <g stroke-opacity="1" fill="none" font-family="Ubuntu" stroke="#000000" stroke-linejoin="bevel" font-style="normal" stroke-linecap="square" font-weight="400" stroke-width="1" transform="matrix(11.8081,0,0,11.8081,218.449,785.237)" font-size="45.8333"/>
  <g stroke-opacity="1" fill="none" font-family="Ubuntu" stroke="#000000" stroke-linejoin="bevel" font-style="normal" stroke-linecap="square" font-weight="400" stroke-width="1" transform="matrix(11.8081,0,0,11.8081,0,0)" font-size="45.8333"/>
  <g stroke-opacity="1" fill="none" font-family="Ubuntu" stroke="#000000" stroke-linejoin="bevel" font-style="normal" stroke-linecap="square" font-weight="400" stroke-width="1" transform="matrix(11.8081,0,0,11.8081,0,0)" font-size="45.8333"/>
  <g stroke-opacity="1" fill="none" font-family="Ubuntu" stroke="#000000" stroke-linejoin="bevel" font-style="normal" stroke-linecap="square" font-weight="400" stroke-width="1" transform="matrix(1,0,0,1,0,0)" font-size="45.8333"/>
 </g>
 <defs/>
 <g fill="none" inkscape:label="Layer 6" inkscape:groupmode="layer" stroke="black" fill-rule="evenodd" stroke-linejoin="bevel" stroke-linecap="square" id="Layer 6" stroke-width="1">
  <g stroke-opacity="1" fill="none" font-family="Ubuntu" stroke="#000000" stroke-linejoin="bevel" font-style="normal" stroke-linecap="square" font-weight="400" stroke-width="1" transform="matrix(1,0,0,1,0,0)" font-size="45.8333"/>
  <g stroke-opacity="1" fill="none" font-family="Ubuntu" stroke="#000000" stroke-linejoin="bevel" font-style="normal" stroke-linecap="square" font-weight="400" stroke-width="1" transform="matrix(11.8081,0,0,11.8081,218.449,785.237)" font-size="45.8333"/>
  <g stroke-opacity="1" fill="none" font-family="Ubuntu" stroke="#000000" stroke-linejoin="bevel" font-style="normal" stroke-linecap="square" font-weight="400" stroke-width="1" transform="matrix(11.8081,0,0,11.8081,218.449,785.237)" font-size="45.8333"/>
  <g fill="#000000" font-family="Ubuntu" stroke="none" font-style="normal" fill-opacity="0" font-weight="400" transform="matrix(0.999751,0,0,0.999751,218.449,785.237)" font-size="45.8333">
   <path fill-rule="evenodd" vector-effect="non-scaling-stroke" d="M0,0 L3071,0 L3071,909 L0,909 L0,0"/>
  </g>
  <g stroke-opacity="1" fill="none" font-family="Ubuntu" stroke="#0cad4d" stroke-linejoin="bevel" font-style="normal" stroke-linecap="square" font-weight="400" stroke-width="3.07087" transform="matrix(0.999751,0,0,0.999751,218.449,785.237)" font-size="45.8333">
   <path fill-rule="evenodd" vector-effect="none" d="M463.624,413.468 L58.3848,461.287"/>
   <path fill-rule="evenodd" vector-effect="none" d="M463.624,413.468 L532.785,536.047"/>
   <path fill-rule="evenodd" vector-effect="none" d="M463.624,413.468 L256.365,238.422"/>
   <path fill-rule="evenodd" vector-effect="none" d="M463.624,413.468 L521.962,410.262"/>
   <path fill-rule="evenodd" vector-effect="none" d="M463.624,413.468 L405.726,395.877"/>
   <path fill-rule="evenodd" vector-effect="none" d="M2238.99,532.291 L2117.37,456.57"/>
   <path fill-rule="evenodd" vector-effect="none" d="M2238.99,532.291 L1845.39,435.049"/>
   <path fill-rule="evenodd" vector-effect="none" d="M2238.99,532.291 L2043.28,549.416"/>
   <path fill-rule="evenodd" vector-effect="none" d="M2238.99,532.291 L2314.71,554.327"/>
   <path fill-rule="evenodd" vector-effect="none" d="M2238.99,532.291 L2042.46,722.615"/>
   <path fill-rule="evenodd" vector-effect="none" d="M2238.99,532.291 L2043.16,572.248"/>
   <path fill-rule="evenodd" vector-effect="none" d="M2238.99,532.291 L2117.37,456.57"/>
   <path fill-rule="evenodd" vector-effect="none" d="M2238.99,532.291 L2042.81,650.765"/>
   <path fill-rule="evenodd" vector-effect="none" d="M2238.99,532.291 L2043.28,549.416"/>
  </g>
  <g stroke-opacity="1" fill="none" font-family="Ubuntu" stroke="#000000" stroke-linejoin="bevel" font-style="normal" stroke-linecap="square" font-weight="400" stroke-width="1" transform="matrix(11.8081,0,0,11.8081,218.449,785.237)" font-size="45.8333"/>
  <g stroke-opacity="1" fill="none" font-family="Ubuntu" stroke="#000000" stroke-linejoin="bevel" font-style="normal" stroke-linecap="square" font-weight="400" stroke-width="1" transform="matrix(11.8081,0,0,11.8081,218.449,785.237)" font-size="45.8333"/>
  <g stroke-opacity="1" fill="none" font-family="Ubuntu" stroke="#000000" stroke-linejoin="bevel" font-style="normal" stroke-linecap="square" font-weight="400" stroke-width="1" transform="matrix(11.8081,0,0,11.8081,218.449,785.237)" font-size="45.8333"/>
  <g stroke-opacity="1" fill="none" font-family="Ubuntu" stroke="#000000" stroke-linejoin="bevel" font-style="normal" stroke-linecap="square" font-weight="400" stroke-width="1" transform="matrix(1,0,0,1,0,0)" font-size="45.8333"/>
  <g stroke-opacity="1" fill="none" font-family="Ubuntu" stroke="#000000" stroke-linejoin="bevel" font-style="normal" stroke-linecap="square" font-weight="400" stroke-width="1" transform="matrix(11.8081,0,0,11.8081,218.449,785.237)" font-size="45.8333"/>
  <g stroke-opacity="1" fill="none" font-family="Ubuntu" stroke="#000000" stroke-linejoin="bevel" font-style="normal" stroke-linecap="square" font-weight="400" stroke-width="1" transform="matrix(11.8081,0,0,11.8081,218.449,785.237)" font-size="45.8333"/>
  <g stroke-opacity="1" fill="none" font-family="Ubuntu" stroke="#000000" stroke-linejoin="bevel" font-style="normal" stroke-linecap="square" font-weight="400" stroke-width="1" transform="matrix(11.8081,0,0,11.8081,0,0)" font-size="45.8333"/>
  <g stroke-opacity="1" fill="none" font-family="Ubuntu" stroke="#000000" stroke-linejoin="bevel" font-style="normal" stroke-linecap="square" font-weight="400" stroke-width="1" transform="matrix(11.8081,0,0,11.8081,0,0)" font-size="45.8333"/>
  <g stroke-opacity="1" fill="none" font-family="Ubuntu" stroke="#000000" stroke-linejoin="bevel" font-style="normal" stroke-linecap="square" font-weight="400" stroke-width="1" transform="matrix(1,0,0,1,0,0)" font-size="45.8333"/>
 </g>
 <defs/>
 <g fill="none" inkscape:label="Layer 7" inkscape:groupmode="layer" stroke="black" fill-rule="evenodd" stroke-linejoin="bevel" stroke-linecap="square" id="Layer 7" stroke-width="1">
  <g stroke-opacity="1" fill="none" font-family="Ubuntu" stroke="#000000" stroke-linejoin="bevel" font-style="normal" stroke-linecap="square" font-weight="400" stroke-width="1" transform="matrix(1,0,0,1,0,0)" font-size="45.8333"/>
  <g stroke-opacity="1" fill="none" font-family="Ubuntu" stroke="#000000" stroke-linejoin="bevel" font-style="normal" stroke-linecap="square" font-weight="400" stroke-width="1" transform="matrix(11.8081,0,0,11.8081,218.449,785.237)" font-size="45.8333"/>
  <g stroke-opacity="1" fill="none" font-family="Ubuntu" stroke="#000000" stroke-linejoin="bevel" font-style="normal" stroke-linecap="square" font-weight="400" stroke-width="1" transform="matrix(11.8081,0,0,11.8081,218.449,785.237)" font-size="45.8333"/>
  <g fill="#000000" font-family="Ubuntu" stroke="none" font-style="normal" fill-opacity="0" font-weight="400" transform="matrix(0.999751,0,0,0.999751,218.449,785.237)" font-size="45.8333">
   <path fill-rule="evenodd" vector-effect="non-scaling-stroke" d="M0,0 L3071,0 L3071,909 L0,909 L0,0"/>
  </g>
  <g stroke-opacity="1" fill="#de3f8a" font-family="Ubuntu" stroke="#000000" stroke-linejoin="bevel" font-style="normal" fill-opacity="1" stroke-linecap="square" font-weight="400" stroke-width="1" transform="matrix(0.999751,0,0,0.999751,218.449,785.237)" font-size="45.8333">
   <path fill-rule="evenodd" vector-effect="non-scaling-stroke" d="M475.435,413.468 C475.435,419.991 470.147,425.279 463.624,425.279 C457.101,425.279 451.813,419.991 451.813,413.468 C451.813,406.945 457.101,401.657 463.624,401.657 C470.147,401.657 475.435,406.945 475.435,413.468 "/>
   <path fill-rule="evenodd" vector-effect="non-scaling-stroke" d="M2250.8,532.291 C2250.8,538.814 2245.51,544.102 2238.99,544.102 C2232.46,544.102 2227.18,538.814 2227.18,532.291 C2227.18,525.768 2232.46,520.48 2238.99,520.48 C2245.51,520.48 2250.8,525.768 2250.8,532.291 "/>
  </g>
  <g stroke-opacity="1" fill="none" font-family="Ubuntu" stroke="#000000" stroke-linejoin="bevel" font-style="normal" stroke-linecap="square" font-weight="400" stroke-width="1" transform="matrix(11.8081,0,0,11.8081,218.449,785.237)" font-size="45.8333"/>
  <g stroke-opacity="1" fill="none" font-family="Ubuntu" stroke="#000000" stroke-linejoin="bevel" font-style="normal" stroke-linecap="square" font-weight="400" stroke-width="1" transform="matrix(11.8081,0,0,11.8081,218.449,785.237)" font-size="45.8333"/>
  <g stroke-opacity="1" fill="none" font-family="Ubuntu" stroke="#000000" stroke-linejoin="bevel" font-style="normal" stroke-linecap="square" font-weight="400" stroke-width="1" transform="matrix(11.8081,0,0,11.8081,218.449,785.237)" font-size="45.8333"/>
  <g stroke-opacity="1" fill="none" font-family="Ubuntu" stroke="#000000" stroke-linejoin="bevel" font-style="normal" stroke-linecap="square" font-weight="400" stroke-width="1" transform="matrix(1,0,0,1,0,0)" font-size="45.8333"/>
  <g stroke-opacity="1" fill="none" font-family="Ubuntu" stroke="#000000" stroke-linejoin="bevel" font-style="normal" stroke-linecap="square" font-weight="400" stroke-width="1" transform="matrix(11.8081,0,0,11.8081,218.449,785.237)" font-size="45.8333"/>
  <g stroke-opacity="1" fill="none" font-family="Ubuntu" stroke="#000000" stroke-linejoin="bevel" font-style="normal" stroke-linecap="square" font-weight="400" stroke-width="1" transform="matrix(11.8081,0,0,11.8081,218.449,785.237)" font-size="45.8333"/>
  <g stroke-opacity="1" fill="none" font-family="Ubuntu" stroke="#000000" stroke-linejoin="bevel" font-style="normal" stroke-linecap="square" font-weight="400" stroke-width="1" transform="matrix(11.8081,0,0,11.8081,0,0)" font-size="45.8333"/>
  <g stroke-opacity="1" fill="none" font-family="Ubuntu" stroke="#000000" stroke-linejoin="bevel" font-style="normal" stroke-linecap="square" font-weight="400" stroke-width="1" transform="matrix(11.8081,0,0,11.8081,0,0)" font-size="45.8333"/>
  <g stroke-opacity="1" fill="none" font-family="Ubuntu" stroke="#000000" stroke-linejoin="bevel" font-style="normal" stroke-linecap="square" font-weight="400" stroke-width="1" transform="matrix(1,0,0,1,0,0)" font-size="45.8333"/>
 </g>
 <defs/>
 <g fill="none" inkscape:label="Layer 8" inkscape:groupmode="layer" stroke="black" fill-rule="evenodd" stroke-linejoin="bevel" stroke-linecap="square" id="Layer 8" stroke-width="1">
  <g stroke-opacity="1" fill="none" font-family="Ubuntu" stroke="#000000" stroke-linejoin="bevel" font-style="normal" stroke-linecap="square" font-weight="400" stroke-width="1" transform="matrix(1,0,0,1,0,0)" font-size="45.8333"/>
  <g stroke-opacity="1" fill="none" font-family="Ubuntu" stroke="#000000" stroke-linejoin="bevel" font-style="normal" stroke-linecap="square" font-weight="400" stroke-width="1" transform="matrix(11.8081,0,0,11.8081,218.449,785.237)" font-size="45.8333"/>
  <g stroke-opacity="1" fill="none" font-family="Ubuntu" stroke="#000000" stroke-linejoin="bevel" font-style="normal" stroke-linecap="square" font-weight="400" stroke-width="1" transform="matrix(11.8081,0,0,11.8081,218.449,785.237)" font-size="45.8333"/>
  <g fill="#000000" font-family="Ubuntu" stroke="none" font-style="normal" fill-opacity="0" font-weight="400" transform="matrix(0.999751,0,0,0.999751,218.449,785.237)" font-size="45.8333">
   <path fill-rule="evenodd" vector-effect="non-scaling-stroke" d="M0,0 L3071,0 L3071,909 L0,909 L0,0"/>
  </g>
  <g stroke-opacity="1" fill="#6a07ff" font-family="Ubuntu" stroke="#000000" stroke-linejoin="bevel" font-style="normal" fill-opacity="1" stroke-linecap="square" font-weight="400" stroke-width="1" transform="matrix(0.999751,0,0,0.999751,218.449,785.237)" font-size="45.8333">
   <path fill-rule="evenodd" vector-effect="non-scaling-stroke" d="M475.435,413.468 C475.435,419.991 470.147,425.279 463.624,425.279 C457.101,425.279 451.813,419.991 451.813,413.468 C451.813,406.945 457.101,401.657 463.624,401.657 C470.147,401.657 475.435,406.945 475.435,413.468 "/>
   <path fill-rule="evenodd" vector-effect="non-scaling-stroke" d="M2250.8,532.291 C2250.8,538.814 2245.51,544.102 2238.99,544.102 C2232.46,544.102 2227.18,538.814 2227.18,532.291 C2227.18,525.768 2232.46,520.48 2238.99,520.48 C2245.51,520.48 2250.8,525.768 2250.8,532.291 "/>
  </g>
  <g stroke-opacity="1" fill="#6a07ff" font-family="Ubuntu" stroke="#000000" stroke-linejoin="bevel" font-style="normal" fill-opacity="1" stroke-linecap="square" font-weight="400" stroke-width="1" transform="matrix(0.999751,0,0,0.999751,218.449,785.237)" font-size="45.8333"/>
  <g stroke-opacity="1" fill="#6a07ff" font-family="Ubuntu" stroke="#000000" stroke-linejoin="bevel" font-style="normal" fill-opacity="1" stroke-linecap="square" font-weight="400" stroke-width="1" transform="matrix(0.31992,0,0,0.31992,681.958,1196.85)" font-size="45.8333"/>
  <g fill="#000000" font-family="Ubuntu" stroke="none" font-style="normal" fill-opacity="1" font-weight="400" transform="matrix(0.999751,0,0,0.999751,681.958,1196.85)" font-size="45.8333">
   <path fill-rule="nonzero" vector-effect="non-scaling-stroke" d="M15.8281,0.6875 C13.7448,0.6875 11.9349,0.367188 10.3984,-0.273438 C8.86198,-0.914062 7.60417,-1.79427 6.625,-2.91406 C5.64583,-4.03385 4.91667,-5.36198 4.4375,-6.89844 C3.95833,-8.4349 3.71875,-10.0938 3.71875,-11.875 L3.71875,-31.875 L8.1875,-31.875 L8.1875,-12.375 C8.1875,-9.1875 8.89323,-6.8724 10.3047,-5.42969 C11.7161,-3.98698 13.5573,-3.26562 15.8281,-3.26562 C16.9635,-3.26562 17.9974,-3.44271 18.9297,-3.79688 C19.862,-4.15104 20.6667,-4.69531 21.3438,-5.42969 C22.0208,-6.16406 22.5443,-7.10677 22.9141,-8.25781 C23.2839,-9.40885 23.4688,-10.7812 23.4688,-12.375 L23.4688,-31.875 L27.9219,-31.875 L27.9219,-11.875 C27.9219,-10.0938 27.6849,-8.4349 27.2109,-6.89844 C26.737,-5.36198 26.0026,-4.03385 25.0078,-2.91406 C24.013,-1.79427 22.7552,-0.914062 21.2344,-0.273438 C19.7135,0.367188 17.9115,0.6875 15.8281,0.6875 M55.0625,-8.28125 C55.0625,-6.98958 54.8385,-5.79948 54.3906,-4.71094 C53.9427,-3.6224 53.2812,-2.67188 52.4062,-1.85938 C51.5312,-1.04688 50.4349,-0.419271 49.1172,0.0234375 C47.7995,0.466146 46.2812,0.6875 44.5625,0.6875 C42.5729,0.6875 40.9115,0.403646 39.5781,-0.164062 C38.2448,-0.731771 37.1797,-1.44531 36.3828,-2.30469 C35.5859,-3.16406 35.0182,-4.10677 34.6797,-5.13281 C34.3411,-6.15885 34.1719,-7.13021 34.1719,-8.04688 C34.1719,-8.94271 34.3177,-9.79688 34.6094,-10.6094 C34.901,-11.4219 35.2839,-12.1797 35.7578,-12.8828 C36.2318,-13.5859 36.7839,-14.2214 37.4141,-14.7891 C38.0443,-15.3568 38.7135,-15.8542 39.4219,-16.2812 C36.4115,-18 34.9062,-20.5312 34.9062,-23.875 C34.9062,-25.0417 35.1354,-26.1536 35.5938,-27.2109 C36.0521,-28.2682 36.7031,-29.1953 37.5469,-29.9922 C38.3906,-30.7891 39.4115,-31.4271 40.6094,-31.9062 C41.8073,-32.3854 43.1406,-32.625 44.6094,-32.625 C46.3281,-32.625 47.8021,-32.362 49.0312,-31.8359 C50.2604,-31.3099 51.2656,-30.6406 52.0469,-29.8281 C52.8281,-29.0156 53.3958,-28.1198 53.75,-27.1406 C54.1042,-26.1615 54.2812,-25.2135 54.2812,-24.2969 C54.2812,-23.401 54.151,-22.5625 53.8906,-21.7812 C53.6302,-21 53.276,-20.2734 52.8281,-19.6016 C52.3802,-18.9297 51.8724,-18.3307 51.3047,-17.8047 C50.737,-17.2786 50.1458,-16.8177 49.5312,-16.4219 C53.1562,-14.7031 55,-11.9896 55.0625,-8.28125 M38.5,-8 C38.5,-7.44792 38.599,-6.8724 38.7969,-6.27344 C38.9948,-5.67448 39.3385,-5.1224 39.8281,-4.61719 C40.3177,-4.11198 40.9453,-3.69271 41.7109,-3.35938 C42.4766,-3.02604 43.4427,-2.85938 44.6094,-2.85938 C45.651,-2.85938 46.5651,-3.01042 47.3516,-3.3125 C48.138,-3.61458 48.776,-4.00521 49.2656,-4.48438 C49.7552,-4.96354 50.1224,-5.50781 50.3672,-6.11719 C50.612,-6.72656 50.7344,-7.35417 50.7344,-8 C50.7344,-8.98958 50.5495,-9.85156 50.1797,-10.5859 C49.8099,-11.3203 49.2812,-11.9635 48.5938,-12.5156 C47.9062,-13.0677 47.0781,-13.5339 46.1094,-13.9141 C45.1406,-14.2943 44.0417,-14.625 42.8125,-14.9062 C41.4375,-14.1354 40.375,-13.1823 39.625,-12.0469 C38.875,-10.9115 38.5,-9.5625 38.5,-8 M50,-24.3438 C50,-24.8021 49.901,-25.3073 49.7031,-25.8594 C49.5052,-26.4115 49.1901,-26.9245 48.7578,-27.3984 C48.3255,-27.8724 47.7734,-28.2708 47.1016,-28.5938 C46.4297,-28.9167 45.599,-29.0781 44.6094,-29.0781 C43.6302,-29.0781 42.7969,-28.9245 42.1094,-28.6172 C41.4219,-28.3099 40.862,-27.9193 40.4297,-27.4453 C39.9974,-26.9714 39.6823,-26.4505 39.4844,-25.8828 C39.2865,-25.3151 39.1875,-24.7552 39.1875,-24.2031 C39.1875,-23.526 39.3099,-22.849 39.5547,-22.1719 C39.7995,-21.4948 40.1823,-20.8672 40.7031,-20.2891 C41.224,-19.7109 41.9062,-19.1901 42.75,-18.7266 C43.5938,-18.263 44.599,-17.8958 45.7656,-17.625 C47.0573,-18.3854 48.0859,-19.2812 48.8516,-20.3125 C49.6172,-21.3438 50,-22.6875 50,-24.3438 M66.7344,-19.5938 C71.3698,-19.4167 74.7682,-18.4062 76.9297,-16.5625 C79.0911,-14.7188 80.1719,-12.2188 80.1719,-9.0625 C80.1719,-7.65625 79.9323,-6.35417 79.4531,-5.15625 C78.974,-3.95833 78.2526,-2.92969 77.2891,-2.07031 C76.3255,-1.21094 75.1068,-0.536458 73.6328,-0.046875 C72.1589,0.442708 70.4115,0.6875 68.3906,0.6875 C67.5885,0.6875 66.7734,0.627604 65.9453,0.507812 C65.1172,0.388021 64.3516,0.234375 63.6484,0.046875 C62.9453,-0.140625 62.3177,-0.325521 61.7656,-0.507812 C61.2135,-0.690104 60.8125,-0.84375 60.5625,-0.96875 L61.3906,-4.6875 C61.9115,-4.44792 62.763,-4.1276 63.9453,-3.72656 C65.1276,-3.32552 66.5781,-3.125 68.2969,-3.125 C69.6823,-3.125 70.8411,-3.27865 71.7734,-3.58594 C72.7057,-3.89323 73.4635,-4.30729 74.0469,-4.82812 C74.6302,-5.34896 75.0521,-5.95573 75.3125,-6.64844 C75.5729,-7.34115 75.7031,-8.06771 75.7031,-8.82812 C75.7031,-9.99479 75.5052,-11.0312 75.1094,-11.9375 C74.7135,-12.8438 74.0078,-13.6042 72.9922,-14.2188 C71.9766,-14.8333 70.625,-15.3021 68.9375,-15.625 C67.25,-15.9479 65.1198,-16.1094 62.5469,-16.1094 C62.7344,-17.6094 62.8802,-19.0182 62.9844,-20.3359 C63.0885,-21.6536 63.1875,-22.9401 63.2812,-24.1953 C63.375,-25.4505 63.4531,-26.7005 63.5156,-27.9453 C63.5781,-29.1901 63.6406,-30.5 63.7031,-31.875 L79.0625,-31.875 L79.0625,-28.25 L67.4219,-28.25 C67.3906,-27.7917 67.3438,-27.1693 67.2812,-26.3828 C67.2188,-25.5964 67.1589,-24.7839 67.1016,-23.9453 C67.0443,-23.1068 66.9844,-22.2865 66.9219,-21.4844 C66.8594,-20.6823 66.7969,-20.0521 66.7344,-19.5938 M85.8125,-15.9688 C85.8125,-21.3021 86.7552,-25.4115 88.6406,-28.2969 C90.526,-31.1823 93.1406,-32.625 96.4844,-32.625 C99.8281,-32.625 102.443,-31.1823 104.328,-28.2969 C106.214,-25.4115 107.156,-21.3021 107.156,-15.9688 C107.156,-10.625 106.214,-6.51302 104.328,-3.63281 C102.443,-0.752604 99.8281,0.6875 96.4844,0.6875 C93.1406,0.6875 90.526,-0.752604 88.6406,-3.63281 C86.7552,-6.51302 85.8125,-10.625 85.8125,-15.9688 M102.656,-15.9688 C102.656,-17.7188 102.557,-19.375 102.359,-20.9375 C102.161,-22.5 101.823,-23.8646 101.344,-25.0312 C100.865,-26.1979 100.227,-27.125 99.4297,-27.8125 C98.6328,-28.5 97.651,-28.8438 96.4844,-28.8438 C95.3177,-28.8438 94.3359,-28.5 93.5391,-27.8125 C92.7422,-27.125 92.1068,-26.1979 91.6328,-25.0312 C91.1589,-23.8646 90.8229,-22.5 90.625,-20.9375 C90.4271,-19.375 90.3281,-17.7188 90.3281,-15.9688 C90.3281,-14.2188 90.4271,-12.5625 90.625,-11 C90.8229,-9.4375 91.1589,-8.07292 91.6328,-6.90625 C92.1068,-5.73958 92.7422,-4.8099 93.5391,-4.11719 C94.3359,-3.42448 95.3177,-3.07812 96.4844,-3.07812 C97.651,-3.07812 98.6328,-3.42448 99.4297,-4.11719 C100.227,-4.8099 100.865,-5.73958 101.344,-6.90625 C101.823,-8.07292 102.161,-9.4375 102.359,-11 C102.557,-12.5625 102.656,-14.2188 102.656,-15.9688 M133.656,-28.3438 C132.948,-27.5417 132.125,-26.5807 131.188,-25.4609 C130.25,-24.3411 129.26,-23.099 128.219,-21.7344 C127.177,-20.3698 126.104,-18.9297 125,-17.4141 C123.896,-15.8984 122.815,-14.3646 121.758,-12.8125 C120.701,-11.2604 119.695,-9.71875 118.742,-8.1875 C117.789,-6.65625 116.932,-5.19792 116.172,-3.8125 L134.109,-3.8125 L134.109,0 L110.969,0 L110.969,-2.98438 C111.615,-4.21354 112.375,-5.5651 113.25,-7.03906 C114.125,-8.51302 115.06,-10.0156 116.055,-11.5469 C117.049,-13.0781 118.083,-14.6276 119.156,-16.1953 C120.229,-17.763 121.294,-19.2656 122.352,-20.7031 C123.409,-22.1406 124.438,-23.4896 125.438,-24.75 C126.438,-26.0104 127.349,-27.1146 128.172,-28.0625 L111.797,-28.0625 L111.797,-31.875 L133.656,-31.875 L133.656,-28.3438 M157.281,-23.7344 C157.281,-22.6302 157.06,-21.5651 156.617,-20.5391 C156.174,-19.513 155.583,-18.5026 154.844,-17.5078 C154.104,-16.513 153.276,-15.5312 152.359,-14.5625 C151.443,-13.5938 150.521,-12.651 149.594,-11.7344 C149.073,-11.2135 148.469,-10.599 147.781,-9.89062 C147.094,-9.18229 146.443,-8.44531 145.828,-7.67969 C145.214,-6.91406 144.698,-6.17969 144.281,-5.47656 C143.865,-4.77344 143.656,-4.16146 143.656,-3.64062 L158.344,-3.64062 L158.344,0 L139.016,0 C138.984,-0.1875 138.969,-0.372396 138.969,-0.554688 C138.969,-0.736979 138.969,-0.90625 138.969,-1.0625 C138.969,-2.5 139.206,-3.84115 139.68,-5.08594 C140.154,-6.33073 140.776,-7.50521 141.547,-8.60938 C142.318,-9.71354 143.177,-10.7552 144.125,-11.7344 C145.073,-12.7135 146.01,-13.6615 146.938,-14.5781 C147.698,-15.3177 148.424,-16.0469 149.117,-16.7656 C149.81,-17.4844 150.424,-18.2057 150.961,-18.9297 C151.497,-19.6536 151.927,-20.3984 152.25,-21.1641 C152.573,-21.9297 152.734,-22.7396 152.734,-23.5938 C152.734,-24.5208 152.589,-25.3047 152.297,-25.9453 C152.005,-26.5859 151.612,-27.1224 151.117,-27.5547 C150.622,-27.987 150.047,-28.3021 149.391,-28.5 C148.734,-28.6979 148.036,-28.7969 147.297,-28.7969 C146.411,-28.7969 145.599,-28.6745 144.859,-28.4297 C144.12,-28.1849 143.458,-27.901 142.875,-27.5781 C142.292,-27.2552 141.802,-26.9167 141.406,-26.5625 C141.01,-26.2083 140.703,-25.9427 140.484,-25.7656 L138.375,-28.7969 C138.646,-29.1094 139.057,-29.487 139.609,-29.9297 C140.161,-30.3724 140.823,-30.7943 141.594,-31.1953 C142.365,-31.5964 143.224,-31.9349 144.172,-32.2109 C145.12,-32.487 146.146,-32.625 147.25,-32.625 C150.594,-32.625 153.102,-31.849 154.773,-30.2969 C156.445,-28.7448 157.281,-26.5573 157.281,-23.7344 "/>
  </g>
  <g stroke-opacity="1" fill="#6a07ff" font-family="Ubuntu" stroke="#000000" stroke-linejoin="bevel" font-style="normal" fill-opacity="1" stroke-linecap="square" font-weight="400" stroke-width="1" transform="matrix(0.31992,0,0,0.31992,681.958,1196.85)" font-size="45.8333"/>
  <g stroke-opacity="1" fill="#6a07ff" font-family="Ubuntu" stroke="#000000" stroke-linejoin="bevel" font-style="normal" fill-opacity="1" stroke-linecap="square" font-weight="400" stroke-width="1" transform="matrix(0.999751,0,0,0.999751,218.449,785.237)" font-size="45.8333"/>
  <g stroke-opacity="1" fill="#6a07ff" font-family="Ubuntu" stroke="#000000" stroke-linejoin="bevel" font-style="normal" fill-opacity="1" stroke-linecap="square" font-weight="400" stroke-width="1" transform="matrix(0.31992,0,0,0.31992,2456.88,1315.65)" font-size="45.8333"/>
  <g fill="#000000" font-family="Ubuntu" stroke="none" font-style="normal" fill-opacity="1" font-weight="400" transform="matrix(0.999751,0,0,0.999751,2456.88,1315.65)" font-size="45.8333">
   <path fill-rule="nonzero" vector-effect="non-scaling-stroke" d="M15.8281,0.6875 C13.7448,0.6875 11.9349,0.367188 10.3984,-0.273438 C8.86198,-0.914062 7.60417,-1.79427 6.625,-2.91406 C5.64583,-4.03385 4.91667,-5.36198 4.4375,-6.89844 C3.95833,-8.4349 3.71875,-10.0938 3.71875,-11.875 L3.71875,-31.875 L8.1875,-31.875 L8.1875,-12.375 C8.1875,-9.1875 8.89323,-6.8724 10.3047,-5.42969 C11.7161,-3.98698 13.5573,-3.26562 15.8281,-3.26562 C16.9635,-3.26562 17.9974,-3.44271 18.9297,-3.79688 C19.862,-4.15104 20.6667,-4.69531 21.3438,-5.42969 C22.0208,-6.16406 22.5443,-7.10677 22.9141,-8.25781 C23.2839,-9.40885 23.4688,-10.7812 23.4688,-12.375 L23.4688,-31.875 L27.9219,-31.875 L27.9219,-11.875 C27.9219,-10.0938 27.6849,-8.4349 27.2109,-6.89844 C26.737,-5.36198 26.0026,-4.03385 25.0078,-2.91406 C24.013,-1.79427 22.7552,-0.914062 21.2344,-0.273438 C19.7135,0.367188 17.9115,0.6875 15.8281,0.6875 M55.0625,-8.28125 C55.0625,-6.98958 54.8385,-5.79948 54.3906,-4.71094 C53.9427,-3.6224 53.2812,-2.67188 52.4062,-1.85938 C51.5312,-1.04688 50.4349,-0.419271 49.1172,0.0234375 C47.7995,0.466146 46.2812,0.6875 44.5625,0.6875 C42.5729,0.6875 40.9115,0.403646 39.5781,-0.164062 C38.2448,-0.731771 37.1797,-1.44531 36.3828,-2.30469 C35.5859,-3.16406 35.0182,-4.10677 34.6797,-5.13281 C34.3411,-6.15885 34.1719,-7.13021 34.1719,-8.04688 C34.1719,-8.94271 34.3177,-9.79688 34.6094,-10.6094 C34.901,-11.4219 35.2839,-12.1797 35.7578,-12.8828 C36.2318,-13.5859 36.7839,-14.2214 37.4141,-14.7891 C38.0443,-15.3568 38.7135,-15.8542 39.4219,-16.2812 C36.4115,-18 34.9062,-20.5312 34.9062,-23.875 C34.9062,-25.0417 35.1354,-26.1536 35.5938,-27.2109 C36.0521,-28.2682 36.7031,-29.1953 37.5469,-29.9922 C38.3906,-30.7891 39.4115,-31.4271 40.6094,-31.9062 C41.8073,-32.3854 43.1406,-32.625 44.6094,-32.625 C46.3281,-32.625 47.8021,-32.362 49.0312,-31.8359 C50.2604,-31.3099 51.2656,-30.6406 52.0469,-29.8281 C52.8281,-29.0156 53.3958,-28.1198 53.75,-27.1406 C54.1042,-26.1615 54.2812,-25.2135 54.2812,-24.2969 C54.2812,-23.401 54.151,-22.5625 53.8906,-21.7812 C53.6302,-21 53.276,-20.2734 52.8281,-19.6016 C52.3802,-18.9297 51.8724,-18.3307 51.3047,-17.8047 C50.737,-17.2786 50.1458,-16.8177 49.5312,-16.4219 C53.1562,-14.7031 55,-11.9896 55.0625,-8.28125 M38.5,-8 C38.5,-7.44792 38.599,-6.8724 38.7969,-6.27344 C38.9948,-5.67448 39.3385,-5.1224 39.8281,-4.61719 C40.3177,-4.11198 40.9453,-3.69271 41.7109,-3.35938 C42.4766,-3.02604 43.4427,-2.85938 44.6094,-2.85938 C45.651,-2.85938 46.5651,-3.01042 47.3516,-3.3125 C48.138,-3.61458 48.776,-4.00521 49.2656,-4.48438 C49.7552,-4.96354 50.1224,-5.50781 50.3672,-6.11719 C50.612,-6.72656 50.7344,-7.35417 50.7344,-8 C50.7344,-8.98958 50.5495,-9.85156 50.1797,-10.5859 C49.8099,-11.3203 49.2812,-11.9635 48.5938,-12.5156 C47.9062,-13.0677 47.0781,-13.5339 46.1094,-13.9141 C45.1406,-14.2943 44.0417,-14.625 42.8125,-14.9062 C41.4375,-14.1354 40.375,-13.1823 39.625,-12.0469 C38.875,-10.9115 38.5,-9.5625 38.5,-8 M50,-24.3438 C50,-24.8021 49.901,-25.3073 49.7031,-25.8594 C49.5052,-26.4115 49.1901,-26.9245 48.7578,-27.3984 C48.3255,-27.8724 47.7734,-28.2708 47.1016,-28.5938 C46.4297,-28.9167 45.599,-29.0781 44.6094,-29.0781 C43.6302,-29.0781 42.7969,-28.9245 42.1094,-28.6172 C41.4219,-28.3099 40.862,-27.9193 40.4297,-27.4453 C39.9974,-26.9714 39.6823,-26.4505 39.4844,-25.8828 C39.2865,-25.3151 39.1875,-24.7552 39.1875,-24.2031 C39.1875,-23.526 39.3099,-22.849 39.5547,-22.1719 C39.7995,-21.4948 40.1823,-20.8672 40.7031,-20.2891 C41.224,-19.7109 41.9062,-19.1901 42.75,-18.7266 C43.5938,-18.263 44.599,-17.8958 45.7656,-17.625 C47.0573,-18.3854 48.0859,-19.2812 48.8516,-20.3125 C49.6172,-21.3438 50,-22.6875 50,-24.3438 M66.7344,-19.5938 C71.3698,-19.4167 74.7682,-18.4062 76.9297,-16.5625 C79.0911,-14.7188 80.1719,-12.2188 80.1719,-9.0625 C80.1719,-7.65625 79.9323,-6.35417 79.4531,-5.15625 C78.974,-3.95833 78.2526,-2.92969 77.2891,-2.07031 C76.3255,-1.21094 75.1068,-0.536458 73.6328,-0.046875 C72.1589,0.442708 70.4115,0.6875 68.3906,0.6875 C67.5885,0.6875 66.7734,0.627604 65.9453,0.507812 C65.1172,0.388021 64.3516,0.234375 63.6484,0.046875 C62.9453,-0.140625 62.3177,-0.325521 61.7656,-0.507812 C61.2135,-0.690104 60.8125,-0.84375 60.5625,-0.96875 L61.3906,-4.6875 C61.9115,-4.44792 62.763,-4.1276 63.9453,-3.72656 C65.1276,-3.32552 66.5781,-3.125 68.2969,-3.125 C69.6823,-3.125 70.8411,-3.27865 71.7734,-3.58594 C72.7057,-3.89323 73.4635,-4.30729 74.0469,-4.82812 C74.6302,-5.34896 75.0521,-5.95573 75.3125,-6.64844 C75.5729,-7.34115 75.7031,-8.06771 75.7031,-8.82812 C75.7031,-9.99479 75.5052,-11.0312 75.1094,-11.9375 C74.7135,-12.8438 74.0078,-13.6042 72.9922,-14.2188 C71.9766,-14.8333 70.625,-15.3021 68.9375,-15.625 C67.25,-15.9479 65.1198,-16.1094 62.5469,-16.1094 C62.7344,-17.6094 62.8802,-19.0182 62.9844,-20.3359 C63.0885,-21.6536 63.1875,-22.9401 63.2812,-24.1953 C63.375,-25.4505 63.4531,-26.7005 63.5156,-27.9453 C63.5781,-29.1901 63.6406,-30.5 63.7031,-31.875 L79.0625,-31.875 L79.0625,-28.25 L67.4219,-28.25 C67.3906,-27.7917 67.3438,-27.1693 67.2812,-26.3828 C67.2188,-25.5964 67.1589,-24.7839 67.1016,-23.9453 C67.0443,-23.1068 66.9844,-22.2865 66.9219,-21.4844 C66.8594,-20.6823 66.7969,-20.0521 66.7344,-19.5938 M85.8125,-15.9688 C85.8125,-21.3021 86.7552,-25.4115 88.6406,-28.2969 C90.526,-31.1823 93.1406,-32.625 96.4844,-32.625 C99.8281,-32.625 102.443,-31.1823 104.328,-28.2969 C106.214,-25.4115 107.156,-21.3021 107.156,-15.9688 C107.156,-10.625 106.214,-6.51302 104.328,-3.63281 C102.443,-0.752604 99.8281,0.6875 96.4844,0.6875 C93.1406,0.6875 90.526,-0.752604 88.6406,-3.63281 C86.7552,-6.51302 85.8125,-10.625 85.8125,-15.9688 M102.656,-15.9688 C102.656,-17.7188 102.557,-19.375 102.359,-20.9375 C102.161,-22.5 101.823,-23.8646 101.344,-25.0312 C100.865,-26.1979 100.227,-27.125 99.4297,-27.8125 C98.6328,-28.5 97.651,-28.8438 96.4844,-28.8438 C95.3177,-28.8438 94.3359,-28.5 93.5391,-27.8125 C92.7422,-27.125 92.1068,-26.1979 91.6328,-25.0312 C91.1589,-23.8646 90.8229,-22.5 90.625,-20.9375 C90.4271,-19.375 90.3281,-17.7188 90.3281,-15.9688 C90.3281,-14.2188 90.4271,-12.5625 90.625,-11 C90.8229,-9.4375 91.1589,-8.07292 91.6328,-6.90625 C92.1068,-5.73958 92.7422,-4.8099 93.5391,-4.11719 C94.3359,-3.42448 95.3177,-3.07812 96.4844,-3.07812 C97.651,-3.07812 98.6328,-3.42448 99.4297,-4.11719 C100.227,-4.8099 100.865,-5.73958 101.344,-6.90625 C101.823,-8.07292 102.161,-9.4375 102.359,-11 C102.557,-12.5625 102.656,-14.2188 102.656,-15.9688 M133.656,-28.3438 C132.948,-27.5417 132.125,-26.5807 131.188,-25.4609 C130.25,-24.3411 129.26,-23.099 128.219,-21.7344 C127.177,-20.3698 126.104,-18.9297 125,-17.4141 C123.896,-15.8984 122.815,-14.3646 121.758,-12.8125 C120.701,-11.2604 119.695,-9.71875 118.742,-8.1875 C117.789,-6.65625 116.932,-5.19792 116.172,-3.8125 L134.109,-3.8125 L134.109,0 L110.969,0 L110.969,-2.98438 C111.615,-4.21354 112.375,-5.5651 113.25,-7.03906 C114.125,-8.51302 115.06,-10.0156 116.055,-11.5469 C117.049,-13.0781 118.083,-14.6276 119.156,-16.1953 C120.229,-17.763 121.294,-19.2656 122.352,-20.7031 C123.409,-22.1406 124.438,-23.4896 125.438,-24.75 C126.438,-26.0104 127.349,-27.1146 128.172,-28.0625 L111.797,-28.0625 L111.797,-31.875 L133.656,-31.875 L133.656,-28.3438 M140.078,-25.2969 C141.828,-25.974 143.531,-26.8411 145.188,-27.8984 C146.844,-28.9557 148.359,-30.2812 149.734,-31.875 L152.766,-31.875 L152.766,0 L148.5,0 L148.5,-25.9531 C148.125,-25.6094 147.669,-25.2552 147.133,-24.8906 C146.596,-24.526 146.016,-24.1745 145.391,-23.8359 C144.766,-23.4974 144.107,-23.1745 143.414,-22.8672 C142.721,-22.5599 142.052,-22.2969 141.406,-22.0781 L140.078,-25.2969"/>
  </g>
  <g stroke-opacity="1" fill="#6a07ff" font-family="Ubuntu" stroke="#000000" stroke-linejoin="bevel" font-style="normal" fill-opacity="1" stroke-linecap="square" font-weight="400" stroke-width="1" transform="matrix(0.31992,0,0,0.31992,2456.88,1315.65)" font-size="45.8333"/>
  <g stroke-opacity="1" fill="#6a07ff" font-family="Ubuntu" stroke="#000000" stroke-linejoin="bevel" font-style="normal" fill-opacity="1" stroke-linecap="square" font-weight="400" stroke-width="1" transform="matrix(0.999751,0,0,0.999751,218.449,785.237)" font-size="45.8333"/>
  <g stroke-opacity="1" fill="none" font-family="Ubuntu" stroke="#000000" stroke-linejoin="bevel" font-style="normal" stroke-linecap="square" font-weight="400" stroke-width="1" transform="matrix(11.8081,0,0,11.8081,218.449,785.237)" font-size="45.8333"/>
  <g stroke-opacity="1" fill="none" font-family="Ubuntu" stroke="#000000" stroke-linejoin="bevel" font-style="normal" stroke-linecap="square" font-weight="400" stroke-width="1" transform="matrix(11.8081,0,0,11.8081,218.449,785.237)" font-size="45.8333"/>
  <g stroke-opacity="1" fill="none" font-family="Ubuntu" stroke="#000000" stroke-linejoin="bevel" font-style="normal" stroke-linecap="square" font-weight="400" stroke-width="1" transform="matrix(11.8081,0,0,11.8081,218.449,785.237)" font-size="45.8333"/>
  <g stroke-opacity="1" fill="none" font-family="Ubuntu" stroke="#000000" stroke-linejoin="bevel" font-style="normal" stroke-linecap="square" font-weight="400" stroke-width="1" transform="matrix(1,0,0,1,0,0)" font-size="45.8333"/>
  <g stroke-opacity="1" fill="none" font-family="Ubuntu" stroke="#000000" stroke-linejoin="bevel" font-style="normal" stroke-linecap="square" font-weight="400" stroke-width="1" transform="matrix(11.8081,0,0,11.8081,218.449,785.237)" font-size="45.8333"/>
  <g stroke-opacity="1" fill="none" font-family="Ubuntu" stroke="#000000" stroke-linejoin="bevel" font-style="normal" stroke-linecap="square" font-weight="400" stroke-width="1" transform="matrix(11.8081,0,0,11.8081,218.449,785.237)" font-size="45.8333"/>
  <g stroke-opacity="1" fill="none" font-family="Ubuntu" stroke="#000000" stroke-linejoin="bevel" font-style="normal" stroke-linecap="square" font-weight="400" stroke-width="1" transform="matrix(11.8081,0,0,11.8081,0,0)" font-size="45.8333"/>
  <g stroke-opacity="1" fill="none" font-family="Ubuntu" stroke="#000000" stroke-linejoin="bevel" font-style="normal" stroke-linecap="square" font-weight="400" stroke-width="1" transform="matrix(11.8081,0,0,11.8081,0,0)" font-size="45.8333"/>
  <g stroke-opacity="1" fill="none" font-family="Ubuntu" stroke="#000000" stroke-linejoin="bevel" font-style="normal" stroke-linecap="square" font-weight="400" stroke-width="1" transform="matrix(1,0,0,1,0,0)" font-size="45.8333"/>
 </g>
 <defs/>
 <g fill="none" inkscape:label="Layer 9" inkscape:groupmode="layer" stroke="black" fill-rule="evenodd" stroke-linejoin="bevel" stroke-linecap="square" id="Layer 9" stroke-width="1">
  <g stroke-opacity="1" fill="none" font-family="Ubuntu" stroke="#000000" stroke-linejoin="bevel" font-style="normal" stroke-linecap="square" font-weight="400" stroke-width="1" transform="matrix(1,0,0,1,0,0)" font-size="45.8333"/>
  <g stroke-opacity="1" fill="none" font-family="Ubuntu" stroke="#000000" stroke-linejoin="bevel" font-style="normal" stroke-linecap="square" font-weight="400" stroke-width="1" transform="matrix(11.8081,0,0,11.8081,218.449,785.237)" font-size="45.8333"/>
  <g stroke-opacity="1" fill="none" font-family="Ubuntu" stroke="#000000" stroke-linejoin="bevel" font-style="normal" stroke-linecap="square" font-weight="400" stroke-width="1" transform="matrix(11.8081,0,0,11.8081,218.449,785.237)" font-size="45.8333"/>
  <g fill="#000000" font-family="Ubuntu" stroke="none" font-style="normal" fill-opacity="0" font-weight="400" transform="matrix(0.999751,0,0,0.999751,218.449,785.237)" font-size="45.8333">
   <path fill-rule="evenodd" vector-effect="non-scaling-stroke" d="M0,0 L3071,0 L3071,909 L0,909 L0,0"/>
  </g>
  <g stroke-opacity="1" fill="none" font-family="Ubuntu" stroke="#000000" stroke-linejoin="bevel" font-style="normal" stroke-linecap="square" font-weight="400" stroke-width="1" transform="matrix(11.8081,0,0,11.8081,218.449,785.237)" font-size="45.8333"/>
  <g stroke-opacity="1" fill="none" font-family="Ubuntu" stroke="#000000" stroke-linejoin="bevel" font-style="normal" stroke-linecap="square" font-weight="400" stroke-width="1" transform="matrix(11.8081,0,0,11.8081,218.449,785.237)" font-size="45.8333"/>
  <g stroke-opacity="1" fill="none" font-family="Ubuntu" stroke="#000000" stroke-linejoin="bevel" font-style="normal" stroke-linecap="square" font-weight="400" stroke-width="1" transform="matrix(11.8081,0,0,11.8081,218.449,785.237)" font-size="45.8333"/>
  <g stroke-opacity="1" fill="none" font-family="Ubuntu" stroke="#000000" stroke-linejoin="bevel" font-style="normal" stroke-linecap="square" font-weight="400" stroke-width="1" transform="matrix(1,0,0,1,0,0)" font-size="45.8333"/>
  <g stroke-opacity="1" fill="none" font-family="Ubuntu" stroke="#000000" stroke-linejoin="bevel" font-style="normal" stroke-linecap="square" font-weight="400" stroke-width="1" transform="matrix(11.8081,0,0,11.8081,218.449,785.237)" font-size="45.8333"/>
  <g stroke-opacity="1" fill="none" font-family="Ubuntu" stroke="#000000" stroke-linejoin="bevel" font-style="normal" stroke-linecap="square" font-weight="400" stroke-width="1" transform="matrix(11.8081,0,0,11.8081,218.449,785.237)" font-size="45.8333"/>
  <g stroke-opacity="1" fill="none" font-family="Ubuntu" stroke="#000000" stroke-linejoin="bevel" font-style="normal" stroke-linecap="square" font-weight="400" stroke-width="1" transform="matrix(11.8081,0,0,11.8081,0,0)" font-size="45.8333"/>
  <g stroke-opacity="1" fill="none" font-family="Ubuntu" stroke="#000000" stroke-linejoin="bevel" font-style="normal" stroke-linecap="square" font-weight="400" stroke-width="1" transform="matrix(11.8081,0,0,11.8081,0,0)" font-size="45.8333"/>
  <g stroke-opacity="1" fill="none" font-family="Ubuntu" stroke="#000000" stroke-linejoin="bevel" font-style="normal" stroke-linecap="square" font-weight="400" stroke-width="1" transform="matrix(1,0,0,1,0,0)" font-size="45.8333"/>
 </g>
 <defs/>
 <g fill="none" inkscape:label="Layer 10" inkscape:groupmode="layer" stroke="black" fill-rule="evenodd" stroke-linejoin="bevel" stroke-linecap="square" id="Layer 10" stroke-width="1">
  <g stroke-opacity="1" fill="none" font-family="Ubuntu" stroke="#000000" stroke-linejoin="bevel" font-style="normal" stroke-linecap="square" font-weight="400" stroke-width="1" transform="matrix(1,0,0,1,0,0)" font-size="45.8333"/>
  <g stroke-opacity="1" fill="none" font-family="Ubuntu" stroke="#000000" stroke-linejoin="bevel" font-style="normal" stroke-linecap="square" font-weight="400" stroke-width="1" transform="matrix(11.8081,0,0,11.8081,218.449,785.237)" font-size="45.8333"/>
  <g stroke-opacity="1" fill="none" font-family="Ubuntu" stroke="#000000" stroke-linejoin="bevel" font-style="normal" stroke-linecap="square" font-weight="400" stroke-width="1" transform="matrix(11.8081,0,0,11.8081,218.449,785.237)" font-size="45.8333"/>
  <g fill="#000000" font-family="Ubuntu" stroke="none" font-style="normal" fill-opacity="0" font-weight="400" transform="matrix(0.999751,0,0,0.999751,218.449,785.237)" font-size="45.8333">
   <path fill-rule="evenodd" vector-effect="non-scaling-stroke" d="M0,0 L3071,0 L3071,909 L0,909 L0,0"/>
  </g>
  <g stroke-opacity="1" fill="none" font-family="Ubuntu" stroke="#000000" stroke-linejoin="bevel" font-style="normal" stroke-linecap="square" font-weight="400" stroke-width="1" transform="matrix(11.8081,0,0,11.8081,218.449,785.237)" font-size="45.8333"/>
  <g stroke-opacity="1" fill="none" font-family="Ubuntu" stroke="#000000" stroke-linejoin="bevel" font-style="normal" stroke-linecap="square" font-weight="400" stroke-width="1" transform="matrix(11.8081,0,0,11.8081,218.449,785.237)" font-size="45.8333"/>
  <g stroke-opacity="1" fill="none" font-family="Ubuntu" stroke="#000000" stroke-linejoin="bevel" font-style="normal" stroke-linecap="square" font-weight="400" stroke-width="1" transform="matrix(11.8081,0,0,11.8081,218.449,785.237)" font-size="45.8333"/>
  <g stroke-opacity="1" fill="none" font-family="Ubuntu" stroke="#000000" stroke-linejoin="bevel" font-style="normal" stroke-linecap="square" font-weight="400" stroke-width="1" transform="matrix(1,0,0,1,0,0)" font-size="45.8333"/>
  <g stroke-opacity="1" fill="none" font-family="Ubuntu" stroke="#000000" stroke-linejoin="bevel" font-style="normal" stroke-linecap="square" font-weight="400" stroke-width="1" transform="matrix(11.8081,0,0,11.8081,218.449,785.237)" font-size="45.8333"/>
  <g stroke-opacity="1" fill="none" font-family="Ubuntu" stroke="#000000" stroke-linejoin="bevel" font-style="normal" stroke-linecap="square" font-weight="400" stroke-width="1" transform="matrix(11.8081,0,0,11.8081,218.449,785.237)" font-size="45.8333"/>
  <g stroke-opacity="1" fill="none" font-family="Ubuntu" stroke="#000000" stroke-linejoin="bevel" font-style="normal" stroke-linecap="square" font-weight="400" stroke-width="1" transform="matrix(11.8081,0,0,11.8081,0,0)" font-size="45.8333"/>
  <g stroke-opacity="1" fill="none" font-family="Ubuntu" stroke="#000000" stroke-linejoin="bevel" font-style="normal" stroke-linecap="square" font-weight="400" stroke-width="1" transform="matrix(11.8081,0,0,11.8081,0,0)" font-size="45.8333"/>
  <g stroke-opacity="1" fill="none" font-family="Ubuntu" stroke="#000000" stroke-linejoin="bevel" font-style="normal" stroke-linecap="square" font-weight="400" stroke-width="1" transform="matrix(1,0,0,1,0,0)" font-size="45.8333"/>
 </g>
</svg>
